<?xml version="1.0" encoding="UTF-8" standalone="no"?>
<!DOCTYPE svg PUBLIC "-//W3C//DTD SVG 1.1//EN"
 "http://www.w3.org/Graphics/SVG/1.1/DTD/svg11.dtd">
<!-- Generated by graphviz version 16.1.0 (20260904.0139)
 -->
<!-- Title: report Pages: 1 -->
<svg width="415pt" height="246pt"
 viewBox="0.00 0.00 415.00 246.00" xmlns="http://www.w3.org/2000/svg" xmlns:xlink="http://www.w3.org/1999/xlink">
<g id="graph0" class="graph" transform="scale(1 1) rotate(0) translate(4 241.5)">
<title>report</title>
<polygon fill="white" stroke="none" points="-4,4 -4,-241.5 411.25,-241.5 411.25,4 -4,4"/>
<!-- main -->
<g id="node1" class="node">
<title>main</title>
<path fill="#f5f7fa" stroke="#4a5568" d="M88,-141.5C88,-141.5 12,-141.5 12,-141.5 6,-141.5 0,-135.5 0,-129.5 0,-129.5 0,-108 0,-108 0,-102 6,-96 12,-96 12,-96 88,-96 88,-96 94,-96 100,-102 100,-108 100,-108 100,-129.5 100,-129.5 100,-135.5 94,-141.5 88,-141.5"/>
<text xml:space="preserve" text-anchor="middle" x="50" y="-126.1" font-family="Meiryo" font-size="12.00">main</text>
<text xml:space="preserve" text-anchor="middle" x="50" y="-107.35" font-family="Meiryo" font-size="12.00">（全体の流れ）</text>
</g>
<!-- load -->
<g id="node2" class="node">
<title>load</title>
<path fill="#f5f7fa" stroke="#4a5568" d="M236,-237.5C236,-237.5 172,-237.5 172,-237.5 166,-237.5 160,-231.5 160,-225.5 160,-225.5 160,-204 160,-204 160,-198 166,-192 172,-192 172,-192 236,-192 236,-192 242,-192 248,-198 248,-204 248,-204 248,-225.5 248,-225.5 248,-231.5 242,-237.5 236,-237.5"/>
<text xml:space="preserve" text-anchor="middle" x="204" y="-222.1" font-family="Meiryo" font-size="12.00">load_sales</text>
<text xml:space="preserve" text-anchor="middle" x="204" y="-203.35" font-family="Meiryo" font-size="12.00">（読み込み）</text>
</g>
<!-- main&#45;&gt;load -->
<g id="edge1" class="edge">
<title>main&#45;&gt;load</title>
<path fill="none" stroke="#4a5568" d="M78.72,-141.85C94.87,-154.73 115.94,-170.58 136,-182.75 140.33,-185.38 144.91,-187.96 149.57,-190.43"/>
<polygon fill="#4a5568" stroke="#4a5568" points="147.95,-193.54 158.45,-194.99 151.15,-187.31 147.95,-193.54"/>
</g>
<!-- valid -->
<g id="node3" class="node">
<title>valid</title>
<path fill="#f5f7fa" stroke="#4a5568" d="M260,-173.5C260,-173.5 148,-173.5 148,-173.5 142,-173.5 136,-167.5 136,-161.5 136,-161.5 136,-140 136,-140 136,-134 142,-128 148,-128 148,-128 260,-128 260,-128 266,-128 272,-134 272,-140 272,-140 272,-161.5 272,-161.5 272,-167.5 266,-173.5 260,-173.5"/>
<text xml:space="preserve" text-anchor="middle" x="204" y="-158.1" font-family="Meiryo" font-size="12.00">is_valid</text>
<text xml:space="preserve" text-anchor="middle" x="204" y="-139.35" font-family="Meiryo" font-size="12.00">（集計の対象の判定）</text>
</g>
<!-- main&#45;&gt;valid -->
<g id="edge2" class="edge">
<title>main&#45;&gt;valid</title>
<path fill="none" stroke="#4a5568" d="M100.35,-129.14C108.1,-130.77 116.27,-132.49 124.48,-134.22"/>
<polygon fill="#4a5568" stroke="#4a5568" points="123.67,-137.63 134.18,-136.26 125.12,-130.78 123.67,-137.63"/>
</g>
<!-- total -->
<g id="node4" class="node">
<title>total</title>
<path fill="#f5f7fa" stroke="#4a5568" d="M253.25,-109.5C253.25,-109.5 154.75,-109.5 154.75,-109.5 148.75,-109.5 142.75,-103.5 142.75,-97.5 142.75,-97.5 142.75,-76 142.75,-76 142.75,-70 148.75,-64 154.75,-64 154.75,-64 253.25,-64 253.25,-64 259.25,-64 265.25,-70 265.25,-76 265.25,-76 265.25,-97.5 265.25,-97.5 265.25,-103.5 259.25,-109.5 253.25,-109.5"/>
<text xml:space="preserve" text-anchor="middle" x="204" y="-94.1" font-family="Meiryo" font-size="12.00">total_by_category</text>
<text xml:space="preserve" text-anchor="middle" x="204" y="-75.35" font-family="Meiryo" font-size="12.00">（集計）</text>
</g>
<!-- main&#45;&gt;total -->
<g id="edge3" class="edge">
<title>main&#45;&gt;total</title>
<path fill="none" stroke="#4a5568" d="M100.35,-108.36C110.22,-106.28 120.77,-104.06 131.22,-101.86"/>
<polygon fill="#4a5568" stroke="#4a5568" points="131.93,-105.29 140.99,-99.8 130.49,-98.44 131.93,-105.29"/>
</g>
<!-- format -->
<g id="node5" class="node">
<title>format</title>
<path fill="#f5f7fa" stroke="#4a5568" d="M241.62,-45.5C241.62,-45.5 166.38,-45.5 166.38,-45.5 160.38,-45.5 154.38,-39.5 154.38,-33.5 154.38,-33.5 154.38,-12 154.38,-12 154.38,-6 160.38,0 166.38,0 166.38,0 241.62,0 241.62,0 247.62,0 253.62,-6 253.62,-12 253.62,-12 253.62,-33.5 253.62,-33.5 253.62,-39.5 247.62,-45.5 241.62,-45.5"/>
<text xml:space="preserve" text-anchor="middle" x="204" y="-30.1" font-family="Meiryo" font-size="12.00">format_report</text>
<text xml:space="preserve" text-anchor="middle" x="204" y="-11.35" font-family="Meiryo" font-size="12.00">（整形）</text>
</g>
<!-- main&#45;&gt;format -->
<g id="edge4" class="edge">
<title>main&#45;&gt;format</title>
<path fill="none" stroke="#4a5568" d="M78.72,-95.65C94.87,-82.77 115.94,-66.92 136,-54.75 138.6,-53.17 141.28,-51.62 144.02,-50.09"/>
<polygon fill="#4a5568" stroke="#4a5568" points="145.59,-53.22 152.75,-45.41 142.28,-47.05 145.59,-53.22"/>
</g>
<!-- sale -->
<g id="node6" class="node">
<title>sale</title>
<polygon fill="#f5f7fa" stroke="#4a5568" points="401.25,-173.5 308,-173.5 308,-128 407.25,-128 407.25,-167.5 401.25,-173.5"/>
<polyline fill="none" stroke="#4a5568" points="401.25,-173.5 401.25,-167.5"/>
<polyline fill="none" stroke="#4a5568" points="407.25,-167.5 401.25,-167.5"/>
<text xml:space="preserve" text-anchor="middle" x="357.62" y="-158.1" font-family="Meiryo" font-size="12.00">Sale</text>
<text xml:space="preserve" text-anchor="middle" x="357.62" y="-139.35" font-family="Meiryo" font-size="12.00">（1 件の売上）</text>
</g>
<!-- load&#45;&gt;sale -->
<g id="edge5" class="edge">
<title>load&#45;&gt;sale</title>
<path fill="none" stroke="#4a5568" stroke-dasharray="5,2" d="M248.45,-196.41C263.6,-190.02 280.86,-182.73 297.09,-175.88"/>
<polygon fill="#4a5568" stroke="#4a5568" points="298.32,-179.16 306.17,-172.05 295.6,-172.71 298.32,-179.16"/>
</g>
<!-- total&#45;&gt;sale -->
<g id="edge6" class="edge">
<title>total&#45;&gt;sale</title>
<path fill="none" stroke="#4a5568" stroke-dasharray="5,2" d="M259.74,-109.86C271.81,-114.95 284.66,-120.37 296.92,-125.55"/>
<polygon fill="#4a5568" stroke="#4a5568" points="295.53,-128.76 306.11,-129.43 298.26,-122.31 295.53,-128.76"/>
</g>
</g>
</svg>
