<?xml version="1.0" encoding="UTF-8" standalone="no"?>
<!DOCTYPE svg PUBLIC "-//W3C//DTD SVG 1.1//EN"
 "http://www.w3.org/Graphics/SVG/1.1/DTD/svg11.dtd">
<!-- Generated by graphviz version 16.1.0 (20260904.0139)
 -->
<!-- Title: sample_app_imports Pages: 1 -->
<svg width="340pt" height="115pt"
 viewBox="0.00 0.00 340.00 115.00" xmlns="http://www.w3.org/2000/svg" xmlns:xlink="http://www.w3.org/1999/xlink">
<g id="graph0" class="graph" transform="scale(1 1) rotate(0) translate(4 110.5)">
<title>sample_app_imports</title>
<polygon fill="white" stroke="none" points="-4,4 -4,-110.5 336.25,-110.5 336.25,4 -4,4"/>
<text xml:space="preserve" text-anchor="middle" x="166.12" y="-89.2" font-family="Times New Roman,serif" font-size="14.00">package: sample_app</text>
<!-- main -->
<g id="node1" class="node">
<title>main</title>
<path fill="lightyellow" stroke="black" d="M42,-59C42,-59 12,-59 12,-59 6,-59 0,-53 0,-47 0,-47 0,-35 0,-35 0,-29 6,-23 12,-23 12,-23 42,-23 42,-23 48,-23 54,-29 54,-35 54,-35 54,-47 54,-47 54,-53 48,-59 42,-59"/>
<text xml:space="preserve" text-anchor="middle" x="27" y="-35.95" font-family="Times New Roman,serif" font-size="14.00">main</text>
</g>
<!-- services -->
<g id="node2" class="node">
<title>services</title>
<path fill="lightyellow" stroke="black" d="M137.5,-36C137.5,-36 102,-36 102,-36 96,-36 90,-30 90,-24 90,-24 90,-12 90,-12 90,-6 96,0 102,0 102,0 137.5,0 137.5,0 143.5,0 149.5,-6 149.5,-12 149.5,-12 149.5,-24 149.5,-24 149.5,-30 143.5,-36 137.5,-36"/>
<text xml:space="preserve" text-anchor="middle" x="119.75" y="-12.95" font-family="Times New Roman,serif" font-size="14.00">services</text>
</g>
<!-- main&#45;&gt;services -->
<g id="edge1" class="edge">
<title>main&#45;&gt;services</title>
<path fill="none" stroke="black" d="M54.25,-34.35C61.88,-32.41 70.39,-30.26 78.67,-28.16"/>
<polygon fill="black" stroke="black" points="79.4,-31.58 88.23,-25.74 77.68,-24.8 79.4,-31.58"/>
</g>
<!-- storage -->
<g id="node3" class="node">
<title>storage</title>
<path fill="lightyellow" stroke="black" d="M228.5,-82C228.5,-82 197.5,-82 197.5,-82 191.5,-82 185.5,-76 185.5,-70 185.5,-70 185.5,-58 185.5,-58 185.5,-52 191.5,-46 197.5,-46 197.5,-46 228.5,-46 228.5,-46 234.5,-46 240.5,-52 240.5,-58 240.5,-58 240.5,-70 240.5,-70 240.5,-76 234.5,-82 228.5,-82"/>
<text xml:space="preserve" text-anchor="middle" x="213" y="-58.95" font-family="Times New Roman,serif" font-size="14.00">storage</text>
</g>
<!-- main&#45;&gt;storage -->
<g id="edge2" class="edge">
<title>main&#45;&gt;storage</title>
<path fill="none" stroke="black" d="M54.36,-44.3C85.75,-48.22 138.39,-54.8 174.13,-59.27"/>
<polygon fill="black" stroke="black" points="173.23,-62.68 183.59,-60.45 174.1,-55.73 173.23,-62.68"/>
</g>
<!-- services&#45;&gt;storage -->
<g id="edge4" class="edge">
<title>services&#45;&gt;storage</title>
<path fill="none" stroke="black" d="M149.87,-32.68C157.79,-36.67 166.48,-41.05 174.79,-45.24"/>
<polygon fill="black" stroke="black" points="173.16,-48.34 183.66,-49.71 176.31,-42.09 173.16,-48.34"/>
</g>
<!-- models -->
<g id="node4" class="node">
<title>models</title>
<path fill="lightyellow" stroke="black" d="M320.25,-59C320.25,-59 288.5,-59 288.5,-59 282.5,-59 276.5,-53 276.5,-47 276.5,-47 276.5,-35 276.5,-35 276.5,-29 282.5,-23 288.5,-23 288.5,-23 320.25,-23 320.25,-23 326.25,-23 332.25,-29 332.25,-35 332.25,-35 332.25,-47 332.25,-47 332.25,-53 326.25,-59 320.25,-59"/>
<text xml:space="preserve" text-anchor="middle" x="304.38" y="-35.95" font-family="Times New Roman,serif" font-size="14.00">models</text>
</g>
<!-- services&#45;&gt;models -->
<g id="edge3" class="edge">
<title>services&#45;&gt;models</title>
<path fill="none" stroke="black" d="M149.69,-21.64C180.86,-25.57 230.62,-31.84 265.03,-36.17"/>
<polygon fill="black" stroke="black" points="264.2,-39.59 274.56,-37.37 265.08,-32.65 264.2,-39.59"/>
</g>
<!-- storage&#45;&gt;models -->
<g id="edge5" class="edge">
<title>storage&#45;&gt;models</title>
<path fill="none" stroke="black" d="M240.82,-57.1C248.52,-55.12 257.08,-52.91 265.32,-50.79"/>
<polygon fill="black" stroke="black" points="265.99,-54.23 274.8,-48.35 264.25,-47.46 265.99,-54.23"/>
</g>
</g>
</svg>
