<?xml version="1.0" encoding="UTF-8" standalone="no"?>
<!DOCTYPE svg PUBLIC "-//W3C//DTD SVG 1.1//EN"
 "http://www.w3.org/Graphics/SVG/1.1/DTD/svg11.dtd">
<!-- Generated by graphviz version 16.1.0 (20260904.0139)
 -->
<!-- Title: state_machine Pages: 1 -->
<svg width="621pt" height="100pt"
 viewBox="0.00 0.00 621.00 100.00" xmlns="http://www.w3.org/2000/svg" xmlns:xlink="http://www.w3.org/1999/xlink">
<g id="graph0" class="graph" transform="scale(1 1) rotate(0) translate(4 96)">
<title>state_machine</title>
<polygon fill="white" stroke="none" points="-4,4 -4,-96 616.8,-96 616.8,4 -4,4"/>
<!-- start -->
<g id="node1" class="node">
<title>start</title>
<ellipse fill="black" stroke="black" cx="7.2" cy="-18" rx="7.2" ry="7.2"/>
</g>
<!-- pending -->
<g id="node3" class="node">
<title>pending</title>
<path fill="none" stroke="black" d="M112.4,-36C112.4,-36 63.4,-36 63.4,-36 57.4,-36 51.4,-30 51.4,-24 51.4,-24 51.4,-12 51.4,-12 51.4,-6 57.4,0 63.4,0 63.4,0 112.4,0 112.4,0 118.4,0 124.4,-6 124.4,-12 124.4,-12 124.4,-24 124.4,-24 124.4,-30 118.4,-36 112.4,-36"/>
<text xml:space="preserve" text-anchor="middle" x="87.9" y="-15.57" font-family="Meiryo" font-size="14.00">受付済み</text>
</g>
<!-- start&#45;&gt;pending -->
<g id="edge1" class="edge">
<title>start&#45;&gt;pending</title>
<path fill="none" stroke="black" d="M14.64,-18C20.51,-18 29.76,-18 39.7,-18"/>
<polygon fill="black" stroke="black" points="39.57,-21.5 49.57,-18 39.57,-14.5 39.57,-21.5"/>
</g>
<!-- end -->
<g id="node2" class="node">
<title>end</title>
<ellipse fill="black" stroke="black" cx="601.6" cy="-36" rx="7.2" ry="7.2"/>
<ellipse fill="none" stroke="black" cx="601.6" cy="-36" rx="11.2" ry="11.2"/>
</g>
<!-- paid -->
<g id="node4" class="node">
<title>paid</title>
<path fill="none" stroke="black" d="M250.65,-72C250.65,-72 201.65,-72 201.65,-72 195.65,-72 189.65,-66 189.65,-60 189.65,-60 189.65,-48 189.65,-48 189.65,-42 195.65,-36 201.65,-36 201.65,-36 250.65,-36 250.65,-36 256.65,-36 262.65,-42 262.65,-48 262.65,-48 262.65,-60 262.65,-60 262.65,-66 256.65,-72 250.65,-72"/>
<text xml:space="preserve" text-anchor="middle" x="226.15" y="-51.58" font-family="Meiryo" font-size="14.00">支払済み</text>
</g>
<!-- pending&#45;&gt;paid -->
<g id="edge2" class="edge">
<title>pending&#45;&gt;paid</title>
<path fill="none" stroke="black" d="M124.7,-27.46C141.2,-31.82 161.01,-37.05 178.65,-41.71"/>
<polygon fill="black" stroke="black" points="177.57,-45.05 188.13,-44.22 179.35,-38.28 177.57,-45.05"/>
<text xml:space="preserve" text-anchor="middle" x="157.03" y="-45.47" font-family="Meiryo" font-size="10.00">支払い</text>
</g>
<!-- cancelled -->
<g id="node7" class="node">
<title>cancelled</title>
<path fill="none" stroke="black" d="M393.4,-38C393.4,-38 330.15,-38 330.15,-38 324.15,-38 318.15,-32 318.15,-26 318.15,-26 318.15,-14 318.15,-14 318.15,-8 324.15,-2 330.15,-2 330.15,-2 393.4,-2 393.4,-2 399.4,-2 405.4,-8 405.4,-14 405.4,-14 405.4,-26 405.4,-26 405.4,-32 399.4,-38 393.4,-38"/>
<text xml:space="preserve" text-anchor="middle" x="361.78" y="-17.57" font-family="Meiryo" font-size="14.00">キャンセル</text>
</g>
<!-- pending&#45;&gt;cancelled -->
<g id="edge6" class="edge">
<title>pending&#45;&gt;cancelled</title>
<path fill="none" stroke="black" d="M124.84,-14.86C159.98,-12.2 215,-9.13 262.65,-11.25 276.94,-11.89 292.37,-13.04 306.66,-14.31"/>
<polygon fill="black" stroke="black" points="306.06,-17.77 316.34,-15.2 306.7,-10.79 306.06,-17.77"/>
<text xml:space="preserve" text-anchor="middle" x="226.15" y="-17.5" font-family="Meiryo" font-size="10.00">取り消し</text>
</g>
<!-- shipped -->
<g id="node5" class="node">
<title>shipped</title>
<path fill="none" stroke="black" d="M386.28,-92C386.28,-92 337.28,-92 337.28,-92 331.28,-92 325.28,-86 325.28,-80 325.28,-80 325.28,-68 325.28,-68 325.28,-62 331.28,-56 337.28,-56 337.28,-56 386.28,-56 386.28,-56 392.28,-56 398.28,-62 398.28,-68 398.28,-68 398.28,-80 398.28,-80 398.28,-86 392.28,-92 386.28,-92"/>
<text xml:space="preserve" text-anchor="middle" x="361.78" y="-71.58" font-family="Meiryo" font-size="14.00">発送済み</text>
</g>
<!-- paid&#45;&gt;shipped -->
<g id="edge3" class="edge">
<title>paid&#45;&gt;shipped</title>
<path fill="none" stroke="black" d="M262.96,-59.36C278.54,-61.69 297,-64.46 313.67,-66.95"/>
<polygon fill="black" stroke="black" points="312.96,-70.38 323.37,-68.4 314,-63.46 312.96,-70.38"/>
<text xml:space="preserve" text-anchor="middle" x="290.4" y="-70.85" font-family="Meiryo" font-size="10.00">発送</text>
</g>
<!-- paid&#45;&gt;cancelled -->
<g id="edge7" class="edge">
<title>paid&#45;&gt;cancelled</title>
<path fill="none" stroke="black" d="M262.96,-44.89C276.39,-41.47 291.97,-37.51 306.69,-33.76"/>
<polygon fill="black" stroke="black" points="307.43,-37.18 316.26,-31.33 305.71,-30.4 307.43,-37.18"/>
<text xml:space="preserve" text-anchor="middle" x="290.4" y="-46.3" font-family="Meiryo" font-size="10.00">返金</text>
</g>
<!-- delivered -->
<g id="node6" class="node">
<title>delivered</title>
<path fill="none" stroke="black" d="M541.4,-90C541.4,-90 492.4,-90 492.4,-90 486.4,-90 480.4,-84 480.4,-78 480.4,-78 480.4,-66 480.4,-66 480.4,-60 486.4,-54 492.4,-54 492.4,-54 541.4,-54 541.4,-54 547.4,-54 553.4,-60 553.4,-66 553.4,-66 553.4,-78 553.4,-78 553.4,-84 547.4,-90 541.4,-90"/>
<text xml:space="preserve" text-anchor="middle" x="516.9" y="-69.58" font-family="Meiryo" font-size="14.00">配達完了</text>
</g>
<!-- shipped&#45;&gt;delivered -->
<g id="edge4" class="edge">
<title>shipped&#45;&gt;delivered</title>
<path fill="none" stroke="black" d="M398.68,-73.53C419.53,-73.26 446.05,-72.91 468.59,-72.62"/>
<polygon fill="black" stroke="black" points="468.49,-76.12 478.45,-72.49 468.4,-69.12 468.49,-76.12"/>
<text xml:space="preserve" text-anchor="middle" x="442.9" y="-79.43" font-family="Meiryo" font-size="10.00">受け取り</text>
</g>
<!-- delivered&#45;&gt;end -->
<g id="edge5" class="edge">
<title>delivered&#45;&gt;end</title>
<path fill="none" stroke="black" d="M553.45,-56.52C562.74,-52.48 572.42,-48.27 580.57,-44.72"/>
<polygon fill="black" stroke="black" points="581.73,-48.03 589.5,-40.83 578.94,-41.61 581.73,-48.03"/>
</g>
<!-- cancelled&#45;&gt;end -->
<g id="edge8" class="edge">
<title>cancelled&#45;&gt;end</title>
<path fill="none" stroke="black" d="M405.84,-22.9C456.83,-26.33 539.76,-31.91 578.87,-34.54"/>
<polygon fill="black" stroke="black" points="578.63,-38.03 588.84,-35.21 579.09,-31.05 578.63,-38.03"/>
</g>
</g>
</svg>
