<?xml version="1.0" encoding="UTF-8" standalone="no"?>
<!DOCTYPE svg PUBLIC "-//W3C//DTD SVG 1.1//EN"
 "http://www.w3.org/Graphics/SVG/1.1/DTD/svg11.dtd">
<!-- Generated by graphviz version 16.1.0 (20260904.0139)
 -->
<!-- Title: gfx Pages: 1 -->
<svg width="831pt" height="52pt"
 viewBox="0.00 0.00 831.00 52.00" xmlns="http://www.w3.org/2000/svg" xmlns:xlink="http://www.w3.org/1999/xlink">
<g id="graph0" class="graph" transform="scale(1 1) rotate(0) translate(4 48)">
<title>gfx</title>
<polygon fill="white" stroke="none" points="-4,4 -4,-48 827,-48 827,4 -4,4"/>
<!-- v -->
<g id="node1" class="node">
<title>v</title>
<path fill="none" stroke="black" d="M60.25,-40C60.25,-40 12,-40 12,-40 6,-40 0,-34 0,-28 0,-28 0,-16 0,-16 0,-10 6,-4 12,-4 12,-4 60.25,-4 60.25,-4 66.25,-4 72.25,-10 72.25,-16 72.25,-16 72.25,-28 72.25,-28 72.25,-34 66.25,-40 60.25,-40"/>
<text xml:space="preserve" text-anchor="middle" x="36.12" y="-17.55" font-family="sans-serif" font-size="11.00">頂点データ</text>
</g>
<!-- vs -->
<g id="node2" class="node">
<title>vs</title>
<path fill="#e8f0fe" stroke="black" d="M213.5,-40C213.5,-40 120.25,-40 120.25,-40 114.25,-40 108.25,-34 108.25,-28 108.25,-28 108.25,-16 108.25,-16 108.25,-10 114.25,-4 120.25,-4 120.25,-4 213.5,-4 213.5,-4 219.5,-4 225.5,-10 225.5,-16 225.5,-16 225.5,-28 225.5,-28 225.5,-34 219.5,-40 213.5,-40"/>
<text xml:space="preserve" text-anchor="middle" x="166.88" y="-23.55" font-family="sans-serif" font-size="11.00">頂点処理</text>
<text xml:space="preserve" text-anchor="middle" x="166.88" y="-11.55" font-family="sans-serif" font-size="11.00">（頂点シェーダー）</text>
</g>
<!-- v&#45;&gt;vs -->
<g id="edge1" class="edge">
<title>v&#45;&gt;vs</title>
<path fill="none" stroke="black" d="M72.65,-22C80.22,-22 88.47,-22 96.82,-22"/>
<polygon fill="black" stroke="black" points="96.7,-25.5 106.7,-22 96.7,-18.5 96.7,-25.5"/>
</g>
<!-- pa -->
<g id="node3" class="node">
<title>pa</title>
<path fill="none" stroke="black" d="M333,-40C333,-40 273.5,-40 273.5,-40 267.5,-40 261.5,-34 261.5,-28 261.5,-28 261.5,-16 261.5,-16 261.5,-10 267.5,-4 273.5,-4 273.5,-4 333,-4 333,-4 339,-4 345,-10 345,-16 345,-16 345,-28 345,-28 345,-34 339,-40 333,-40"/>
<text xml:space="preserve" text-anchor="middle" x="303.25" y="-23.55" font-family="sans-serif" font-size="11.00">プリミティブ</text>
<text xml:space="preserve" text-anchor="middle" x="303.25" y="-11.55" font-family="sans-serif" font-size="11.00">組み立て</text>
</g>
<!-- vs&#45;&gt;pa -->
<g id="edge2" class="edge">
<title>vs&#45;&gt;pa</title>
<path fill="none" stroke="black" d="M225.64,-22C233.67,-22 241.88,-22 249.81,-22"/>
<polygon fill="black" stroke="black" points="249.64,-25.5 259.64,-22 249.64,-18.5 249.64,-25.5"/>
</g>
<!-- ra -->
<g id="node4" class="node">
<title>ra</title>
<path fill="none" stroke="black" d="M452.5,-40C452.5,-40 393,-40 393,-40 387,-40 381,-34 381,-28 381,-28 381,-16 381,-16 381,-10 387,-4 393,-4 393,-4 452.5,-4 452.5,-4 458.5,-4 464.5,-10 464.5,-16 464.5,-16 464.5,-28 464.5,-28 464.5,-34 458.5,-40 452.5,-40"/>
<text xml:space="preserve" text-anchor="middle" x="422.75" y="-17.55" font-family="sans-serif" font-size="11.00">ラスタライズ</text>
</g>
<!-- pa&#45;&gt;ra -->
<g id="edge3" class="edge">
<title>pa&#45;&gt;ra</title>
<path fill="none" stroke="black" d="M345.35,-22C353.17,-22 361.46,-22 369.58,-22"/>
<polygon fill="black" stroke="black" points="369.36,-25.5 379.36,-22 369.36,-18.5 369.36,-25.5"/>
</g>
<!-- fs -->
<g id="node5" class="node">
<title>fs</title>
<path fill="#e8f0fe" stroke="black" d="M594.5,-44C594.5,-44 512.5,-44 512.5,-44 506.5,-44 500.5,-38 500.5,-32 500.5,-32 500.5,-12 500.5,-12 500.5,-6 506.5,0 512.5,0 512.5,0 594.5,0 594.5,0 600.5,0 606.5,-6 606.5,-12 606.5,-12 606.5,-32 606.5,-32 606.5,-38 600.5,-44 594.5,-44"/>
<text xml:space="preserve" text-anchor="middle" x="553.5" y="-29.55" font-family="sans-serif" font-size="11.00">フラグメント処理</text>
<text xml:space="preserve" text-anchor="middle" x="553.5" y="-17.55" font-family="sans-serif" font-size="11.00">（フラグメント</text>
<text xml:space="preserve" text-anchor="middle" x="553.5" y="-5.55" font-family="sans-serif" font-size="11.00">シェーダー）</text>
</g>
<!-- ra&#45;&gt;fs -->
<g id="edge4" class="edge">
<title>ra&#45;&gt;fs</title>
<path fill="none" stroke="black" d="M464.84,-22C472.44,-22 480.55,-22 488.64,-22"/>
<polygon fill="black" stroke="black" points="488.51,-25.5 498.51,-22 488.51,-18.5 488.51,-25.5"/>
</g>
<!-- om -->
<g id="node6" class="node">
<title>om</title>
<path fill="none" stroke="black" d="M714,-40C714,-40 654.5,-40 654.5,-40 648.5,-40 642.5,-34 642.5,-28 642.5,-28 642.5,-16 642.5,-16 642.5,-10 648.5,-4 654.5,-4 654.5,-4 714,-4 714,-4 720,-4 726,-10 726,-16 726,-16 726,-28 726,-28 726,-34 720,-40 714,-40"/>
<text xml:space="preserve" text-anchor="middle" x="684.25" y="-23.55" font-family="sans-serif" font-size="11.00">深度テスト・</text>
<text xml:space="preserve" text-anchor="middle" x="684.25" y="-11.55" font-family="sans-serif" font-size="11.00">合成</text>
</g>
<!-- fs&#45;&gt;om -->
<g id="edge5" class="edge">
<title>fs&#45;&gt;om</title>
<path fill="none" stroke="black" d="M606.87,-22C614.82,-22 623.02,-22 630.97,-22"/>
<polygon fill="black" stroke="black" points="630.87,-25.5 640.87,-22 630.87,-18.5 630.87,-25.5"/>
</g>
<!-- fb -->
<g id="node7" class="node">
<title>fb</title>
<path fill="none" stroke="black" d="M811,-40C811,-40 774,-40 774,-40 768,-40 762,-34 762,-28 762,-28 762,-16 762,-16 762,-10 768,-4 774,-4 774,-4 811,-4 811,-4 817,-4 823,-10 823,-16 823,-16 823,-28 823,-28 823,-34 817,-40 811,-40"/>
<text xml:space="preserve" text-anchor="middle" x="792.5" y="-23.55" font-family="sans-serif" font-size="11.00">フレーム</text>
<text xml:space="preserve" text-anchor="middle" x="792.5" y="-11.55" font-family="sans-serif" font-size="11.00">バッファ</text>
</g>
<!-- om&#45;&gt;fb -->
<g id="edge6" class="edge">
<title>om&#45;&gt;fb</title>
<path fill="none" stroke="black" d="M726.33,-22C734.25,-22 742.56,-22 750.48,-22"/>
<polygon fill="black" stroke="black" points="750.22,-25.5 760.22,-22 750.22,-18.5 750.22,-25.5"/>
</g>
</g>
</svg>
