<?xml version="1.0" encoding="UTF-8" standalone="no"?>
<!DOCTYPE svg PUBLIC "-//W3C//DTD SVG 1.1//EN"
 "http://www.w3.org/Graphics/SVG/1.1/DTD/svg11.dtd">
<!-- Generated by graphviz version 16.1.0 (20260904.0139)
 -->
<!-- Title: toolchain Pages: 1 -->
<svg width="680pt" height="99pt"
 viewBox="0.00 0.00 680.00 99.00" xmlns="http://www.w3.org/2000/svg" xmlns:xlink="http://www.w3.org/1999/xlink">
<g id="graph0" class="graph" transform="scale(1 1) rotate(0) translate(4 94.65)">
<title>toolchain</title>
<polygon fill="white" stroke="none" points="-4,4 -4,-94.65 675.75,-94.65 675.75,4 -4,4"/>
<!-- src -->
<g id="node1" class="node">
<title>src</title>
<polygon fill="none" stroke="black" points="60.25,-90.65 0,-90.65 0,-53.35 60.25,-53.35 60.25,-90.65"/>
<text xml:space="preserve" text-anchor="middle" x="30.12" y="-76.2" font-family="sans-serif" font-size="11.00">C ソース</text>
<text xml:space="preserve" text-anchor="middle" x="30.12" y="-61.15" font-family="sans-serif" font-size="11.00">(.c)</text>
</g>
<!-- asm -->
<g id="node2" class="node">
<title>asm</title>
<polygon fill="none" stroke="black" points="217.25,-90 145,-90 145,-54 217.25,-54 217.25,-90"/>
<text xml:space="preserve" text-anchor="middle" x="181.12" y="-74.67" font-family="sans-serif" font-size="11.00">アセンブリ</text>
<text xml:space="preserve" text-anchor="middle" x="181.12" y="-62.67" font-family="sans-serif" font-size="11.00">(.s)</text>
</g>
<!-- src&#45;&gt;asm -->
<g id="edge1" class="edge">
<title>src&#45;&gt;asm</title>
<path fill="none" stroke="black" d="M60.56,-72C81.33,-72 109.59,-72 133.42,-72"/>
<polygon fill="black" stroke="black" points="133.2,-75.5 143.2,-72 133.2,-68.5 133.2,-75.5"/>
<text xml:space="preserve" text-anchor="middle" x="102.62" y="-73" font-family="sans-serif" font-size="10.00">コンパイラ</text>
</g>
<!-- obj -->
<g id="node3" class="node">
<title>obj</title>
<polygon fill="none" stroke="black" points="385.5,-90 302,-90 302,-54 385.5,-54 385.5,-90"/>
<text xml:space="preserve" text-anchor="middle" x="343.75" y="-75.32" font-family="sans-serif" font-size="11.00">オブジェクト</text>
<text xml:space="preserve" text-anchor="middle" x="343.75" y="-63.32" font-family="sans-serif" font-size="11.00">ファイル (.o)</text>
</g>
<!-- asm&#45;&gt;obj -->
<g id="edge2" class="edge">
<title>asm&#45;&gt;obj</title>
<path fill="none" stroke="black" d="M217.37,-72C238.72,-72 266.35,-72 290.24,-72"/>
<polygon fill="black" stroke="black" points="290.11,-75.5 300.11,-72 290.11,-68.5 290.11,-75.5"/>
<text xml:space="preserve" text-anchor="middle" x="259.62" y="-73" font-family="sans-serif" font-size="10.00">アセンブラ</text>
</g>
<!-- exe -->
<g id="node5" class="node">
<title>exe</title>
<polygon fill="none" stroke="black" points="534.25,-52 450.75,-52 450.75,-16 534.25,-16 534.25,-52"/>
<text xml:space="preserve" text-anchor="middle" x="492.5" y="-29.55" font-family="sans-serif" font-size="11.00">実行ファイル</text>
</g>
<!-- obj&#45;&gt;exe -->
<g id="edge3" class="edge">
<title>obj&#45;&gt;exe</title>
<path fill="none" stroke="black" d="M385.63,-61.41C402.26,-57.11 421.69,-52.08 439.33,-47.51"/>
<polygon fill="black" stroke="black" points="440.06,-50.93 448.87,-45.04 438.31,-44.16 440.06,-50.93"/>
<text xml:space="preserve" text-anchor="middle" x="418.12" y="-57.4" font-family="sans-serif" font-size="10.00">リンカ</text>
</g>
<!-- lib -->
<g id="node4" class="node">
<title>lib</title>
<polygon fill="none" stroke="black" points="379.88,-36 307.62,-36 307.62,0 379.88,0 379.88,-36"/>
<text xml:space="preserve" text-anchor="middle" x="343.75" y="-13.55" font-family="sans-serif" font-size="11.00">ライブラリ</text>
</g>
<!-- lib&#45;&gt;exe -->
<g id="edge4" class="edge">
<title>lib&#45;&gt;exe</title>
<path fill="none" stroke="black" d="M380.27,-21.87C397.93,-23.8 419.61,-26.16 439.13,-28.29"/>
<polygon fill="black" stroke="black" points="438.5,-31.74 448.82,-29.35 439.26,-24.78 438.5,-31.74"/>
</g>
<!-- mem -->
<g id="node6" class="node">
<title>mem</title>
<polygon fill="none" stroke="black" points="671.75,-52 599.5,-52 599.5,-16 671.75,-16 671.75,-52"/>
<text xml:space="preserve" text-anchor="middle" x="635.62" y="-35.55" font-family="sans-serif" font-size="11.00">メモリ上の</text>
<text xml:space="preserve" text-anchor="middle" x="635.62" y="-23.55" font-family="sans-serif" font-size="11.00">プロセス</text>
</g>
<!-- exe&#45;&gt;mem -->
<g id="edge5" class="edge">
<title>exe&#45;&gt;mem</title>
<path fill="none" stroke="black" d="M534.7,-34C551.36,-34 570.67,-34 587.86,-34"/>
<polygon fill="black" stroke="black" points="587.84,-37.5 597.84,-34 587.84,-30.5 587.84,-37.5"/>
<text xml:space="preserve" text-anchor="middle" x="566.88" y="-35" font-family="sans-serif" font-size="10.00">ローダ</text>
</g>
</g>
</svg>
