<?xml version="1.0" encoding="utf-8" standalone="no"?>
<!DOCTYPE svg PUBLIC "-//W3C//DTD SVG 1.1//EN"
  "http://www.w3.org/Graphics/SVG/1.1/DTD/svg11.dtd">
<svg xmlns:xlink="http://www.w3.org/1999/xlink" width="532.00375pt" height="280.8pt" viewBox="0 0 532.00375 280.8" xmlns="http://www.w3.org/2000/svg" version="1.1">
 <metadata>
  <rdf:RDF xmlns:dc="http://purl.org/dc/elements/1.1/" xmlns:cc="http://creativecommons.org/ns#" xmlns:rdf="http://www.w3.org/1999/02/22-rdf-syntax-ns#">
   <cc:Work>
    <dc:type rdf:resource="http://purl.org/dc/dcmitype/StillImage"/>
    <dc:date>2026-10-07T23:31:17.349414</dc:date>
    <dc:format>image/svg+xml</dc:format>
    <dc:creator>
     <cc:Agent>
      <dc:title>Matplotlib v3.11.2, https://matplotlib.org/</dc:title>
     </cc:Agent>
    </dc:creator>
   </cc:Work>
  </rdf:RDF>
 </metadata>
 <defs>
  <style type="text/css">*{stroke-linejoin: round; stroke-linecap: butt}</style>
 </defs>
 <g id="figure_1">
  <g id="patch_1">
   <path d="M 0 280.8 
L 532.00375 280.8 
L 532.00375 0 
L 0 0 
z
" style="fill: #ffffff"/>
  </g>
  <g id="axes_1">
   <g id="patch_2">
    <path d="M 44.882812 242.6 
L 519.242813 242.6 
L 519.242813 7.2 
L 44.882812 7.2 
z
" style="fill: #ffffff"/>
   </g>
   <g id="FillBetweenPolyCollection_1">
    <path d="M 44.882812 160.778658 
L 44.882812 242.6 
L 88.006449 242.6 
L 131.130085 242.6 
L 174.253722 242.6 
L 217.377358 242.6 
L 260.500994 242.6 
L 303.624631 242.6 
L 346.748267 242.6 
L 389.871903 242.6 
L 432.99554 242.6 
L 476.119176 242.6 
L 519.242813 242.6 
L 519.242813 134.595829 
L 519.242813 134.595829 
L 476.119176 137.868683 
L 432.99554 136.232256 
L 389.871903 139.505109 
L 346.748267 142.777963 
L 303.624631 141.141536 
L 260.500994 144.41439 
L 217.377358 147.687244 
L 174.253722 154.232951 
L 131.130085 152.596524 
L 88.006449 157.505805 
L 44.882812 160.778658 
z
" clip-path="url(#p43c66de1cc)" style="fill: #1f77b4; fill-opacity: 0.85"/>
   </g>
   <g id="FillBetweenPolyCollection_2">
    <path d="M 44.882812 144.41439 
L 44.882812 160.778658 
L 88.006449 157.505805 
L 131.130085 152.596524 
L 174.253722 154.232951 
L 217.377358 147.687244 
L 260.500994 144.41439 
L 303.624631 141.141536 
L 346.748267 142.777963 
L 389.871903 139.505109 
L 432.99554 136.232256 
L 476.119176 137.868683 
L 519.242813 134.595829 
L 519.242813 80.593743 
L 519.242813 80.593743 
L 476.119176 88.775878 
L 432.99554 92.048731 
L 389.871903 98.594439 
L 346.748267 106.776573 
L 303.624631 108.413 
L 260.500994 114.958707 
L 217.377358 121.504414 
L 174.253722 131.322975 
L 131.130085 131.322975 
L 88.006449 139.505109 
L 44.882812 144.41439 
z
" clip-path="url(#p43c66de1cc)" style="fill: #ff7f0e; fill-opacity: 0.85"/>
   </g>
   <g id="FillBetweenPolyCollection_3">
    <path d="M 44.882812 111.685853 
L 44.882812 144.41439 
L 88.006449 139.505109 
L 131.130085 131.322975 
L 174.253722 131.322975 
L 217.377358 121.504414 
L 260.500994 114.958707 
L 303.624631 108.413 
L 346.748267 106.776573 
L 389.871903 98.594439 
L 432.99554 92.048731 
L 476.119176 88.775878 
L 519.242813 80.593743 
L 519.242813 38.046646 
L 519.242813 38.046646 
L 476.119176 47.865207 
L 432.99554 51.13806 
L 389.871903 59.320195 
L 346.748267 67.502329 
L 303.624631 70.775182 
L 260.500994 77.32089 
L 217.377358 85.503024 
L 174.253722 95.321585 
L 131.130085 96.958012 
L 88.006449 106.776573 
L 44.882812 111.685853 
z
" clip-path="url(#p43c66de1cc)" style="fill: #2ca02c; fill-opacity: 0.85"/>
   </g>
   <g id="FillBetweenPolyCollection_4">
    <path d="M 44.882812 103.503719 
L 44.882812 111.685853 
L 88.006449 106.776573 
L 131.130085 96.958012 
L 174.253722 95.321585 
L 217.377358 85.503024 
L 260.500994 77.32089 
L 303.624631 70.775182 
L 346.748267 67.502329 
L 389.871903 59.320195 
L 432.99554 51.13806 
L 476.119176 47.865207 
L 519.242813 38.046646 
L 519.242813 18.409524 
L 519.242813 18.409524 
L 476.119176 29.864512 
L 432.99554 34.773792 
L 389.871903 44.592353 
L 346.748267 52.774487 
L 303.624631 57.683768 
L 260.500994 65.865902 
L 217.377358 74.048036 
L 174.253722 85.503024 
L 131.130085 87.139451 
L 88.006449 98.594439 
L 44.882812 103.503719 
z
" clip-path="url(#p43c66de1cc)" style="fill: #d62728; fill-opacity: 0.85"/>
   </g>
   <g id="matplotlib.axis_1">
    <g id="xtick_1">
     <g id="line2d_1">
      <path d="M 44.882812 242.6 
L 44.882812 7.2 
" clip-path="url(#p43c66de1cc)" style="fill: none; stroke: #b0b0b0; stroke-opacity: 0.3; stroke-width: 0.8; stroke-linecap: square"/>
     </g>
     <g id="line2d_2">
      <defs>
       <path id="ma9e1f5a735" d="M 0 0 
L 0 3.5 
" style="stroke: #000000; stroke-width: 0.8"/>
      </defs>
      <g>
       <use xlink:href="#ma9e1f5a735" x="44.882812" y="242.6" style="stroke: #000000; stroke-width: 0.8"/>
      </g>
     </g>
     <g id="text_1">
      <!-- 1 -->
      <g transform="translate(42.102344 258.398828) scale(0.1 -0.1)">
       <defs>
        <path id="YuGothic-Regular-14" d="M 2063 4794 
L 2063 481 
L 2925 481 
L 2925 141 
L 744 141 
L 744 481 
L 1666 481 
L 1666 4359 
Q 1259 4081 725 3878 
L 653 4250 
Q 1184 4428 1734 4794 
L 2063 4794 
z
" transform="scale(0.015625)"/>
       </defs>
       <use xlink:href="#YuGothic-Regular-14"/>
      </g>
     </g>
    </g>
    <g id="xtick_2">
     <g id="line2d_3">
      <path d="M 88.006449 242.6 
L 88.006449 7.2 
" clip-path="url(#p43c66de1cc)" style="fill: none; stroke: #b0b0b0; stroke-opacity: 0.3; stroke-width: 0.8; stroke-linecap: square"/>
     </g>
     <g id="line2d_4">
      <g>
       <use xlink:href="#ma9e1f5a735" x="88.006449" y="242.6" style="stroke: #000000; stroke-width: 0.8"/>
      </g>
     </g>
     <g id="text_2">
      <!-- 2 -->
      <g transform="translate(85.22598 258.398828) scale(0.1 -0.1)">
       <defs>
        <path id="YuGothic-Regular-15" d="M 459 3597 
Q 588 4228 988 4541 
Q 1325 4806 1819 4806 
Q 2406 4806 2750 4453 
Q 3059 4138 3059 3628 
Q 3059 3219 2838 2875 
Q 2628 2556 2094 2075 
Q 1191 1284 825 494 
L 3066 494 
L 3066 141 
L 422 141 
L 422 456 
Q 819 1406 1806 2309 
Q 2331 2800 2497 3088 
Q 2638 3331 2638 3628 
Q 2638 4038 2378 4263 
Q 2156 4453 1813 4453 
Q 1025 4453 863 3494 
L 459 3597 
z
" transform="scale(0.015625)"/>
       </defs>
       <use xlink:href="#YuGothic-Regular-15"/>
      </g>
     </g>
    </g>
    <g id="xtick_3">
     <g id="line2d_5">
      <path d="M 131.130085 242.6 
L 131.130085 7.2 
" clip-path="url(#p43c66de1cc)" style="fill: none; stroke: #b0b0b0; stroke-opacity: 0.3; stroke-width: 0.8; stroke-linecap: square"/>
     </g>
     <g id="line2d_6">
      <g>
       <use xlink:href="#ma9e1f5a735" x="131.130085" y="242.6" style="stroke: #000000; stroke-width: 0.8"/>
      </g>
     </g>
     <g id="text_3">
      <!-- 3 -->
      <g transform="translate(128.349616 258.398828) scale(0.1 -0.1)">
       <defs>
        <path id="YuGothic-Regular-16" d="M 463 3922 
Q 641 4378 1013 4606 
Q 1331 4806 1756 4806 
Q 2331 4806 2688 4456 
Q 3003 4150 3003 3694 
Q 3003 3241 2738 2950 
Q 2509 2703 2125 2613 
L 2125 2572 
Q 2625 2459 2884 2116 
Q 3113 1813 3113 1388 
Q 3113 750 2688 378 
Q 2322 56 1769 56 
Q 759 56 372 928 
L 756 1094 
Q 922 700 1191 541 
Q 1419 403 1769 403 
Q 2216 403 2469 703 
Q 2691 966 2691 1375 
Q 2691 1888 2369 2147 
Q 2078 2381 1563 2381 
L 1203 2381 
L 1203 2747 
L 1525 2747 
Q 2072 2747 2350 3025 
Q 2588 3263 2588 3659 
Q 2588 4059 2319 4278 
Q 2094 4459 1747 4459 
Q 1409 4459 1169 4266 
Q 947 4088 847 3769 
L 463 3922 
z
" transform="scale(0.015625)"/>
       </defs>
       <use xlink:href="#YuGothic-Regular-16"/>
      </g>
     </g>
    </g>
    <g id="xtick_4">
     <g id="line2d_7">
      <path d="M 174.253722 242.6 
L 174.253722 7.2 
" clip-path="url(#p43c66de1cc)" style="fill: none; stroke: #b0b0b0; stroke-opacity: 0.3; stroke-width: 0.8; stroke-linecap: square"/>
     </g>
     <g id="line2d_8">
      <g>
       <use xlink:href="#ma9e1f5a735" x="174.253722" y="242.6" style="stroke: #000000; stroke-width: 0.8"/>
      </g>
     </g>
     <g id="text_4">
      <!-- 4 -->
      <g transform="translate(171.473253 258.398828) scale(0.1 -0.1)">
       <defs>
        <path id="YuGothic-Regular-17" d="M 2553 4788 
L 2553 1572 
L 3231 1572 
L 3231 1241 
L 2553 1241 
L 2553 141 
L 2188 141 
L 2188 1241 
L 306 1241 
L 306 1553 
L 1997 4788 
L 2553 4788 
z
M 2188 1572 
L 2188 3488 
Q 2188 3678 2200 4459 
L 2138 4459 
Q 1944 3988 1719 3563 
L 697 1572 
L 2188 1572 
z
" transform="scale(0.015625)"/>
       </defs>
       <use xlink:href="#YuGothic-Regular-17"/>
      </g>
     </g>
    </g>
    <g id="xtick_5">
     <g id="line2d_9">
      <path d="M 217.377358 242.6 
L 217.377358 7.2 
" clip-path="url(#p43c66de1cc)" style="fill: none; stroke: #b0b0b0; stroke-opacity: 0.3; stroke-width: 0.8; stroke-linecap: square"/>
     </g>
     <g id="line2d_10">
      <g>
       <use xlink:href="#ma9e1f5a735" x="217.377358" y="242.6" style="stroke: #000000; stroke-width: 0.8"/>
      </g>
     </g>
     <g id="text_5">
      <!-- 5 -->
      <g transform="translate(214.596889 258.398828) scale(0.1 -0.1)">
       <defs>
        <path id="YuGothic-Regular-18" d="M 2906 4728 
L 2906 4375 
L 1016 4375 
L 959 3159 
Q 953 3022 922 2622 
Q 1066 2856 1325 2988 
Q 1556 3103 1819 3103 
Q 2397 3103 2753 2653 
Q 3072 2247 3072 1625 
Q 3072 850 2622 416 
Q 2253 56 1716 56 
Q 772 56 434 909 
L 825 1075 
Q 1059 403 1716 403 
Q 2172 403 2425 766 
Q 2650 1088 2650 1606 
Q 2650 2188 2381 2494 
Q 2147 2756 1759 2756 
Q 1447 2756 1209 2566 
Q 1003 2397 903 2116 
L 569 2169 
L 678 4728 
L 2906 4728 
z
" transform="scale(0.015625)"/>
       </defs>
       <use xlink:href="#YuGothic-Regular-18"/>
      </g>
     </g>
    </g>
    <g id="xtick_6">
     <g id="line2d_11">
      <path d="M 260.500994 242.6 
L 260.500994 7.2 
" clip-path="url(#p43c66de1cc)" style="fill: none; stroke: #b0b0b0; stroke-opacity: 0.3; stroke-width: 0.8; stroke-linecap: square"/>
     </g>
     <g id="line2d_12">
      <g>
       <use xlink:href="#ma9e1f5a735" x="260.500994" y="242.6" style="stroke: #000000; stroke-width: 0.8"/>
      </g>
     </g>
     <g id="text_6">
      <!-- 6 -->
      <g transform="translate(257.720526 258.398828) scale(0.1 -0.1)">
       <defs>
        <path id="YuGothic-Regular-19" d="M 3041 4206 
L 2656 4019 
Q 2459 4459 1984 4459 
Q 909 4459 872 2369 
Q 1306 3066 1959 3066 
Q 2516 3066 2847 2622 
Q 3138 2231 3138 1625 
Q 3138 856 2722 422 
Q 2375 56 1850 56 
Q 1184 56 819 653 
Q 475 1209 475 2200 
Q 475 3606 941 4266 
Q 1325 4806 1997 4806 
Q 2716 4806 3041 4206 
z
M 884 1966 
Q 891 1138 1200 731 
Q 1450 403 1850 403 
Q 2284 403 2516 759 
Q 2722 1075 2722 1619 
Q 2722 2166 2469 2459 
Q 2250 2713 1897 2713 
Q 1297 2713 884 1966 
z
" transform="scale(0.015625)"/>
       </defs>
       <use xlink:href="#YuGothic-Regular-19"/>
      </g>
     </g>
    </g>
    <g id="xtick_7">
     <g id="line2d_13">
      <path d="M 303.624631 242.6 
L 303.624631 7.2 
" clip-path="url(#p43c66de1cc)" style="fill: none; stroke: #b0b0b0; stroke-opacity: 0.3; stroke-width: 0.8; stroke-linecap: square"/>
     </g>
     <g id="line2d_14">
      <g>
       <use xlink:href="#ma9e1f5a735" x="303.624631" y="242.6" style="stroke: #000000; stroke-width: 0.8"/>
      </g>
     </g>
     <g id="text_7">
      <!-- 7 -->
      <g transform="translate(300.844162 258.398828) scale(0.1 -0.1)">
       <defs>
        <path id="YuGothic-Regular-1a" d="M 3091 4728 
L 3091 4406 
Q 2434 3356 2106 2284 
Q 1809 1325 1709 141 
L 1253 141 
Q 1381 1450 1778 2538 
Q 2100 3428 2675 4363 
L 434 4363 
L 434 4728 
L 3091 4728 
z
" transform="scale(0.015625)"/>
       </defs>
       <use xlink:href="#YuGothic-Regular-1a"/>
      </g>
     </g>
    </g>
    <g id="xtick_8">
     <g id="line2d_15">
      <path d="M 346.748267 242.6 
L 346.748267 7.2 
" clip-path="url(#p43c66de1cc)" style="fill: none; stroke: #b0b0b0; stroke-opacity: 0.3; stroke-width: 0.8; stroke-linecap: square"/>
     </g>
     <g id="line2d_16">
      <g>
       <use xlink:href="#ma9e1f5a735" x="346.748267" y="242.6" style="stroke: #000000; stroke-width: 0.8"/>
      </g>
     </g>
     <g id="text_8">
      <!-- 8 -->
      <g transform="translate(343.967798 258.398828) scale(0.1 -0.1)">
       <defs>
        <path id="YuGothic-Regular-1b" d="M 2144 2578 
Q 2753 2309 2988 1978 
Q 3181 1706 3181 1306 
Q 3181 684 2738 344 
Q 2363 56 1775 56 
Q 1103 56 719 425 
Q 372 756 372 1291 
Q 372 1728 650 2028 
Q 891 2288 1409 2528 
Q 891 2775 688 3072 
Q 513 3322 513 3688 
Q 513 4209 906 4528 
Q 1253 4806 1772 4806 
Q 2378 4806 2741 4456 
Q 3053 4153 3053 3706 
Q 3053 3288 2825 3022 
Q 2616 2784 2144 2578 
z
M 1831 2725 
Q 2328 2938 2509 3191 
Q 2656 3391 2656 3700 
Q 2656 4072 2381 4288 
Q 2144 4475 1772 4475 
Q 1353 4475 1116 4231 
Q 909 4019 909 3688 
Q 909 3366 1103 3159 
Q 1288 2966 1722 2778 
L 1831 2725 
z
M 1734 2375 
Q 1178 2125 963 1859 
Q 775 1628 775 1306 
Q 775 856 1078 613 
Q 1341 397 1775 397 
Q 2281 397 2550 672 
Q 2778 906 2778 1300 
Q 2778 1663 2550 1897 
Q 2341 2109 1844 2322 
L 1734 2375 
z
" transform="scale(0.015625)"/>
       </defs>
       <use xlink:href="#YuGothic-Regular-1b"/>
      </g>
     </g>
    </g>
    <g id="xtick_9">
     <g id="line2d_17">
      <path d="M 389.871903 242.6 
L 389.871903 7.2 
" clip-path="url(#p43c66de1cc)" style="fill: none; stroke: #b0b0b0; stroke-opacity: 0.3; stroke-width: 0.8; stroke-linecap: square"/>
     </g>
     <g id="line2d_18">
      <g>
       <use xlink:href="#ma9e1f5a735" x="389.871903" y="242.6" style="stroke: #000000; stroke-width: 0.8"/>
      </g>
     </g>
     <g id="text_9">
      <!-- 9 -->
      <g transform="translate(387.091435 258.398828) scale(0.1 -0.1)">
       <defs>
        <path id="YuGothic-Regular-1c" d="M 934 825 
Q 1153 403 1594 403 
Q 2144 403 2409 938 
Q 2663 1444 2694 2491 
Q 2319 1803 1638 1803 
Q 1078 1803 731 2250 
Q 422 2647 422 3244 
Q 422 3994 831 4431 
Q 1178 4806 1703 4806 
Q 2394 4806 2753 4216 
Q 3084 3669 3084 2669 
Q 3084 56 1594 56 
Q 866 56 556 628 
L 934 825 
z
M 2675 2894 
Q 2659 3700 2381 4103 
Q 2138 4459 1716 4459 
Q 1278 4459 1044 4091 
Q 838 3772 838 3244 
Q 838 2713 1106 2409 
Q 1338 2150 1691 2150 
Q 2294 2150 2675 2894 
z
" transform="scale(0.015625)"/>
       </defs>
       <use xlink:href="#YuGothic-Regular-1c"/>
      </g>
     </g>
    </g>
    <g id="xtick_10">
     <g id="line2d_19">
      <path d="M 432.99554 242.6 
L 432.99554 7.2 
" clip-path="url(#p43c66de1cc)" style="fill: none; stroke: #b0b0b0; stroke-opacity: 0.3; stroke-width: 0.8; stroke-linecap: square"/>
     </g>
     <g id="line2d_20">
      <g>
       <use xlink:href="#ma9e1f5a735" x="432.99554" y="242.6" style="stroke: #000000; stroke-width: 0.8"/>
      </g>
     </g>
     <g id="text_10">
      <!-- 10 -->
      <g transform="translate(427.434602 258.398828) scale(0.1 -0.1)">
       <defs>
        <path id="YuGothic-Regular-13" d="M 1788 4806 
Q 3150 4806 3150 2456 
Q 3150 56 1772 56 
Q 409 56 409 2444 
Q 409 4806 1788 4806 
z
M 1788 4453 
Q 1269 4453 1047 3938 
Q 838 3456 838 2456 
Q 838 1303 1100 819 
Q 1322 409 1772 409 
Q 2291 409 2516 950 
Q 2722 1444 2722 2450 
Q 2722 3591 2456 4059 
Q 2234 4453 1788 4453 
z
" transform="scale(0.015625)"/>
       </defs>
       <use xlink:href="#YuGothic-Regular-14"/>
       <use xlink:href="#YuGothic-Regular-13" transform="translate(55.609375 0)"/>
      </g>
     </g>
    </g>
    <g id="xtick_11">
     <g id="line2d_21">
      <path d="M 476.119176 242.6 
L 476.119176 7.2 
" clip-path="url(#p43c66de1cc)" style="fill: none; stroke: #b0b0b0; stroke-opacity: 0.3; stroke-width: 0.8; stroke-linecap: square"/>
     </g>
     <g id="line2d_22">
      <g>
       <use xlink:href="#ma9e1f5a735" x="476.119176" y="242.6" style="stroke: #000000; stroke-width: 0.8"/>
      </g>
     </g>
     <g id="text_11">
      <!-- 11 -->
      <g transform="translate(470.558239 258.398828) scale(0.1 -0.1)">
       <use xlink:href="#YuGothic-Regular-14"/>
       <use xlink:href="#YuGothic-Regular-14" transform="translate(55.609375 0)"/>
      </g>
     </g>
    </g>
    <g id="xtick_12">
     <g id="line2d_23">
      <path d="M 519.242813 242.6 
L 519.242813 7.2 
" clip-path="url(#p43c66de1cc)" style="fill: none; stroke: #b0b0b0; stroke-opacity: 0.3; stroke-width: 0.8; stroke-linecap: square"/>
     </g>
     <g id="line2d_24">
      <g>
       <use xlink:href="#ma9e1f5a735" x="519.242813" y="242.6" style="stroke: #000000; stroke-width: 0.8"/>
      </g>
     </g>
     <g id="text_12">
      <!-- 12 -->
      <g transform="translate(513.681875 258.398828) scale(0.1 -0.1)">
       <use xlink:href="#YuGothic-Regular-14"/>
       <use xlink:href="#YuGothic-Regular-15" transform="translate(55.609375 0)"/>
      </g>
     </g>
    </g>
    <g id="text_13">
     <!-- 月 -->
     <g transform="translate(277.062813 272.398828) scale(0.1 -0.1)">
      <defs>
       <path id="YuGothic-Regular-746" d="M 4547 1734 
L 1984 1734 
Q 1884 988 1619 481 
Q 1397 66 969 -366 
Q 919 -419 897 -419 
Q 875 -419 809 -372 
Q 706 -297 597 -275 
Q 1359 413 1584 1241 
Q 1769 1916 1769 3334 
L 1769 4056 
L 1756 4891 
Q 1756 4934 1800 4934 
L 2631 4922 
L 3984 4922 
L 4822 4934 
Q 4866 4934 4866 4891 
L 4853 4056 
L 4853 1113 
L 4859 181 
Q 4859 -100 4694 -247 
Q 4550 -372 4069 -372 
Q 3972 -372 3822 -369 
Q 3744 -369 3728 -353 
Q 3713 -341 3694 -269 
Q 3656 -122 3591 -31 
Q 3931 -63 4278 -63 
Q 4547 -63 4547 238 
L 4547 1734 
z
M 4547 2009 
L 4547 3206 
L 2069 3206 
Q 2056 2406 2016 2009 
L 4547 2009 
z
M 4547 3481 
L 4547 4641 
L 2069 4641 
L 2069 3481 
L 4547 3481 
z
" transform="scale(0.015625)"/>
      </defs>
      <use xlink:href="#YuGothic-Regular-746"/>
     </g>
    </g>
   </g>
   <g id="matplotlib.axis_2">
    <g id="ytick_1">
     <g id="line2d_25">
      <path d="M 44.882812 242.6 
L 519.242813 242.6 
" clip-path="url(#p43c66de1cc)" style="fill: none; stroke: #b0b0b0; stroke-opacity: 0.3; stroke-width: 0.8; stroke-linecap: square"/>
     </g>
     <g id="line2d_26">
      <defs>
       <path id="m2d7c99452b" d="M 0 0 
L -3.5 0 
" style="stroke: #000000; stroke-width: 0.8"/>
      </defs>
      <g>
       <use xlink:href="#m2d7c99452b" x="44.882812" y="242.6" style="stroke: #000000; stroke-width: 0.8"/>
      </g>
     </g>
     <g id="text_14">
      <!-- 0 -->
      <g transform="translate(32.321875 246.999414) scale(0.1 -0.1)">
       <use xlink:href="#YuGothic-Regular-13"/>
      </g>
     </g>
    </g>
    <g id="ytick_2">
     <g id="line2d_27">
      <path d="M 44.882812 209.871463 
L 519.242813 209.871463 
" clip-path="url(#p43c66de1cc)" style="fill: none; stroke: #b0b0b0; stroke-opacity: 0.3; stroke-width: 0.8; stroke-linecap: square"/>
     </g>
     <g id="line2d_28">
      <g>
       <use xlink:href="#m2d7c99452b" x="44.882812" y="209.871463" style="stroke: #000000; stroke-width: 0.8"/>
      </g>
     </g>
     <g id="text_15">
      <!-- 20 -->
      <g transform="translate(26.760937 214.270877) scale(0.1 -0.1)">
       <use xlink:href="#YuGothic-Regular-15"/>
       <use xlink:href="#YuGothic-Regular-13" transform="translate(55.609375 0)"/>
      </g>
     </g>
    </g>
    <g id="ytick_3">
     <g id="line2d_29">
      <path d="M 44.882812 177.142927 
L 519.242813 177.142927 
" clip-path="url(#p43c66de1cc)" style="fill: none; stroke: #b0b0b0; stroke-opacity: 0.3; stroke-width: 0.8; stroke-linecap: square"/>
     </g>
     <g id="line2d_30">
      <g>
       <use xlink:href="#m2d7c99452b" x="44.882812" y="177.142927" style="stroke: #000000; stroke-width: 0.8"/>
      </g>
     </g>
     <g id="text_16">
      <!-- 40 -->
      <g transform="translate(26.760937 181.542341) scale(0.1 -0.1)">
       <use xlink:href="#YuGothic-Regular-17"/>
       <use xlink:href="#YuGothic-Regular-13" transform="translate(55.609375 0)"/>
      </g>
     </g>
    </g>
    <g id="ytick_4">
     <g id="line2d_31">
      <path d="M 44.882812 144.41439 
L 519.242813 144.41439 
" clip-path="url(#p43c66de1cc)" style="fill: none; stroke: #b0b0b0; stroke-opacity: 0.3; stroke-width: 0.8; stroke-linecap: square"/>
     </g>
     <g id="line2d_32">
      <g>
       <use xlink:href="#m2d7c99452b" x="44.882812" y="144.41439" style="stroke: #000000; stroke-width: 0.8"/>
      </g>
     </g>
     <g id="text_17">
      <!-- 60 -->
      <g transform="translate(26.760937 148.813804) scale(0.1 -0.1)">
       <use xlink:href="#YuGothic-Regular-19"/>
       <use xlink:href="#YuGothic-Regular-13" transform="translate(55.609375 0)"/>
      </g>
     </g>
    </g>
    <g id="ytick_5">
     <g id="line2d_33">
      <path d="M 44.882812 111.685853 
L 519.242813 111.685853 
" clip-path="url(#p43c66de1cc)" style="fill: none; stroke: #b0b0b0; stroke-opacity: 0.3; stroke-width: 0.8; stroke-linecap: square"/>
     </g>
     <g id="line2d_34">
      <g>
       <use xlink:href="#m2d7c99452b" x="44.882812" y="111.685853" style="stroke: #000000; stroke-width: 0.8"/>
      </g>
     </g>
     <g id="text_18">
      <!-- 80 -->
      <g transform="translate(26.760937 116.085267) scale(0.1 -0.1)">
       <use xlink:href="#YuGothic-Regular-1b"/>
       <use xlink:href="#YuGothic-Regular-13" transform="translate(55.609375 0)"/>
      </g>
     </g>
    </g>
    <g id="ytick_6">
     <g id="line2d_35">
      <path d="M 44.882812 78.957317 
L 519.242813 78.957317 
" clip-path="url(#p43c66de1cc)" style="fill: none; stroke: #b0b0b0; stroke-opacity: 0.3; stroke-width: 0.8; stroke-linecap: square"/>
     </g>
     <g id="line2d_36">
      <g>
       <use xlink:href="#m2d7c99452b" x="44.882812" y="78.957317" style="stroke: #000000; stroke-width: 0.8"/>
      </g>
     </g>
     <g id="text_19">
      <!-- 100 -->
      <g transform="translate(21.2 83.356731) scale(0.1 -0.1)">
       <use xlink:href="#YuGothic-Regular-14"/>
       <use xlink:href="#YuGothic-Regular-13" transform="translate(55.609375 0)"/>
       <use xlink:href="#YuGothic-Regular-13" transform="translate(111.21875 0)"/>
      </g>
     </g>
    </g>
    <g id="ytick_7">
     <g id="line2d_37">
      <path d="M 44.882812 46.22878 
L 519.242813 46.22878 
" clip-path="url(#p43c66de1cc)" style="fill: none; stroke: #b0b0b0; stroke-opacity: 0.3; stroke-width: 0.8; stroke-linecap: square"/>
     </g>
     <g id="line2d_38">
      <g>
       <use xlink:href="#m2d7c99452b" x="44.882812" y="46.22878" style="stroke: #000000; stroke-width: 0.8"/>
      </g>
     </g>
     <g id="text_20">
      <!-- 120 -->
      <g transform="translate(21.2 50.628194) scale(0.1 -0.1)">
       <use xlink:href="#YuGothic-Regular-14"/>
       <use xlink:href="#YuGothic-Regular-15" transform="translate(55.609375 0)"/>
       <use xlink:href="#YuGothic-Regular-13" transform="translate(111.21875 0)"/>
      </g>
     </g>
    </g>
    <g id="ytick_8">
     <g id="line2d_39">
      <path d="M 44.882812 13.500243 
L 519.242813 13.500243 
" clip-path="url(#p43c66de1cc)" style="fill: none; stroke: #b0b0b0; stroke-opacity: 0.3; stroke-width: 0.8; stroke-linecap: square"/>
     </g>
     <g id="line2d_40">
      <g>
       <use xlink:href="#m2d7c99452b" x="44.882812" y="13.500243" style="stroke: #000000; stroke-width: 0.8"/>
      </g>
     </g>
     <g id="text_21">
      <!-- 140 -->
      <g transform="translate(21.2 17.899657) scale(0.1 -0.1)">
       <use xlink:href="#YuGothic-Regular-14"/>
       <use xlink:href="#YuGothic-Regular-17" transform="translate(55.609375 0)"/>
       <use xlink:href="#YuGothic-Regular-13" transform="translate(111.21875 0)"/>
      </g>
     </g>
    </g>
    <g id="text_22">
     <!-- 利用料金（万円） -->
     <g transform="translate(15.998828 164.9) rotate(-90) scale(0.1 -0.1)">
      <defs>
       <path id="YuGothic-Regular-f64" d="M 2034 2938 
Q 2038 1822 2056 538 
Q 2063 234 2069 -181 
Q 2072 -378 2072 -397 
Q 2072 -441 2028 -441 
L 1791 -441 
Q 1747 -441 1747 -397 
L 1791 2938 
Q 1363 1741 513 738 
Q 466 681 447 681 
Q 428 681 397 738 
Q 338 841 244 916 
Q 1125 1797 1656 3109 
L 1191 3109 
L 416 3097 
Q 372 3097 372 3144 
L 372 3328 
Q 372 3372 416 3372 
L 1191 3359 
L 1772 3359 
L 1772 4459 
Q 1313 4309 775 4197 
Q 722 4188 706 4188 
Q 672 4188 619 4269 
Q 572 4347 484 4416 
Q 1044 4503 1681 4700 
Q 2172 4853 2456 4991 
Q 2631 5078 2731 5172 
Q 2888 5072 2963 5006 
Q 3013 4953 3013 4916 
Q 3013 4869 2922 4856 
Q 2828 4841 2647 4769 
Q 2453 4684 2059 4550 
L 2059 3359 
L 2359 3359 
L 3141 3372 
Q 3184 3372 3184 3328 
L 3184 3144 
Q 3184 3097 3141 3097 
L 2359 3109 
L 2144 3109 
Q 2541 2263 3159 1663 
Q 3069 1581 3019 1484 
Q 2984 1419 2966 1419 
Q 2947 1419 2903 1472 
Q 2347 2138 2034 2938 
z
M 4309 31 
Q 4556 -6 4909 -6 
Q 5119 -6 5184 63 
Q 5250 128 5250 319 
L 5250 4416 
Q 5250 4934 5206 5153 
Q 5409 5141 5550 5113 
Q 5622 5103 5622 5063 
Q 5622 5038 5581 4947 
Q 5550 4878 5550 4422 
L 5550 1131 
L 5556 269 
Q 5556 -78 5384 -191 
Q 5275 -269 5113 -288 
Q 4959 -306 4547 -306 
Q 4469 -306 4453 -291 
Q 4434 -275 4419 -197 
Q 4400 -109 4309 31 
z
M 3675 4691 
Q 3859 4681 4000 4653 
Q 4056 4644 4056 4603 
Q 4056 4588 4044 4559 
Q 4028 4525 4025 4513 
Q 4000 4441 4000 3859 
L 4000 2131 
L 4013 1313 
Q 4013 1269 3969 1269 
L 3750 1269 
Q 3706 1269 3706 1313 
L 3719 2131 
L 3719 3847 
Q 3719 4494 3675 4691 
z
" transform="scale(0.015625)"/>
       <path id="YuGothic-Regular-f3d" d="M 5269 1697 
L 3378 1697 
L 3378 928 
L 3391 -172 
Q 3391 -219 3347 -219 
L 3116 -219 
Q 3072 -219 3072 -172 
L 3084 928 
L 3084 1697 
L 1288 1697 
Q 1216 963 1025 484 
Q 884 134 603 -263 
Q 556 -325 538 -325 
Q 522 -325 463 -275 
Q 381 -213 256 -166 
Q 709 397 872 1050 
Q 1038 1725 1038 2950 
L 1038 3884 
L 1025 4872 
Q 1025 4916 1069 4916 
L 1984 4903 
L 4609 4903 
L 5538 4916 
Q 5581 4916 5581 4872 
L 5569 3884 
L 5569 1038 
L 5575 184 
Q 5575 -91 5397 -225 
Q 5238 -341 4734 -341 
Q 4697 -341 4616 -341 
Q 4528 -341 4513 -325 
Q 4500 -309 4488 -238 
Q 4466 -113 4391 -6 
Q 4653 -31 5038 -31 
Q 5269 -31 5269 244 
L 5269 1697 
z
M 5269 3425 
L 5269 4634 
L 3378 4634 
L 3378 3425 
L 5269 3425 
z
M 5269 3163 
L 3378 3163 
L 3378 1959 
L 5269 1959 
L 5269 3163 
z
M 1306 1959 
L 3084 1959 
L 3084 3163 
L 1331 3163 
L 1331 2950 
Q 1331 2338 1306 1959 
z
M 1331 3425 
L 3084 3425 
L 3084 4634 
L 1331 4634 
L 1331 3425 
z
" transform="scale(0.015625)"/>
       <path id="YuGothic-Regular-f8b" d="M 1863 2656 
Q 1866 1622 1888 459 
Q 1894 184 1903 -194 
Q 1906 -372 1906 -391 
Q 1906 -434 1863 -434 
L 1638 -434 
Q 1594 -434 1594 -391 
Q 1594 -384 1603 91 
Q 1634 1481 1638 2656 
Q 1263 1513 634 606 
Q 594 550 575 550 
Q 556 550 519 613 
Q 459 719 378 769 
Q 791 1288 1059 1803 
Q 1297 2253 1522 2881 
L 1253 2881 
L 569 2869 
Q 525 2869 525 2913 
L 525 3097 
Q 525 3144 569 3144 
L 1253 3128 
L 1613 3128 
L 1613 4569 
Q 1613 5097 1569 5306 
Q 1738 5297 1888 5275 
Q 1966 5263 1966 5222 
Q 1966 5206 1919 5100 
Q 1888 5022 1888 4575 
L 1888 3128 
L 2041 3128 
L 2725 3144 
Q 2772 3144 2772 3097 
L 2772 2913 
Q 2772 2869 2725 2869 
L 2041 2881 
L 1938 2881 
Q 2275 2209 2791 1606 
Q 2706 1531 2656 1434 
Q 2622 1369 2606 1369 
Q 2591 1369 2553 1419 
Q 2116 2066 1863 2656 
z
M 5281 1709 
Q 5850 1822 6019 1875 
Q 6025 1878 6034 1878 
Q 6059 1878 6069 1831 
L 6106 1625 
Q 6109 1613 6109 1606 
Q 6109 1581 6069 1575 
Q 6066 1575 5975 1556 
Q 5697 1506 5281 1428 
L 5281 722 
L 5294 -384 
Q 5294 -428 5250 -428 
L 5019 -428 
Q 4975 -428 4975 -384 
L 4988 716 
L 4988 1369 
L 3656 1100 
Q 3269 1022 3000 959 
Q 2953 947 2863 925 
Q 2828 916 2819 916 
Q 2803 913 2797 913 
Q 2772 913 2766 953 
L 2722 1166 
Q 2719 1178 2719 1184 
Q 2719 1209 2759 1216 
Q 3238 1297 3613 1369 
L 4988 1644 
L 4988 4378 
Q 4988 4963 4944 5222 
Q 5166 5213 5275 5191 
Q 5344 5178 5344 5141 
Q 5344 5131 5319 5031 
Q 5281 4903 5281 4391 
L 5281 1709 
z
M 2163 3622 
Q 2419 4134 2541 4588 
Q 2569 4691 2581 4825 
Q 2725 4791 2841 4738 
Q 2906 4703 2906 4672 
Q 2906 4647 2863 4603 
Q 2822 4563 2784 4459 
Q 2644 4056 2438 3609 
Q 2403 3538 2378 3538 
Q 2363 3538 2309 3572 
Q 2238 3613 2163 3622 
z
M 641 4653 
Q 634 4666 634 4672 
Q 634 4694 697 4722 
L 781 4763 
Q 828 4784 841 4784 
Q 856 4784 872 4753 
Q 1119 4269 1281 3659 
Q 1284 3647 1284 3641 
Q 1284 3619 1197 3584 
L 1122 3553 
Q 1053 3525 1038 3525 
Q 1016 3525 1013 3559 
Q 909 4103 641 4653 
z
M 3347 4481 
Q 3325 4494 3325 4506 
Q 3325 4525 3372 4575 
L 3450 4653 
Q 3481 4691 3503 4691 
Q 3513 4691 3534 4678 
Q 4063 4338 4434 3909 
Q 4453 3894 4453 3881 
Q 4453 3863 4416 3828 
L 4334 3731 
Q 4272 3669 4259 3669 
Q 4250 3669 4231 3694 
Q 3838 4169 3347 4481 
z
M 3175 3078 
Q 3150 3094 3150 3109 
Q 3150 3131 3181 3163 
L 3272 3250 
Q 3303 3284 3322 3284 
Q 3334 3284 3353 3272 
Q 3863 2963 4269 2509 
Q 4288 2488 4288 2472 
Q 4288 2453 4250 2413 
L 4172 2322 
Q 4122 2266 4103 2266 
Q 4091 2266 4072 2284 
Q 3616 2791 3175 3078 
z
" transform="scale(0.015625)"/>
       <path id="YuGothic-Regular-6dc" d="M 2994 2131 
L 2994 3003 
L 2559 3003 
L 1753 2991 
Q 1706 2991 1706 3034 
L 1706 3241 
Q 1706 3284 1753 3284 
L 2559 3272 
L 3813 3272 
L 4625 3284 
Q 4669 3284 4669 3241 
L 4669 3034 
Q 4669 2991 4625 2991 
L 3813 3003 
L 3294 3003 
L 3294 2131 
L 4709 2131 
L 5597 2144 
Q 5644 2144 5644 2100 
L 5644 1894 
Q 5644 1850 5597 1850 
L 4709 1863 
L 3294 1863 
L 3294 103 
L 4888 103 
L 5766 116 
Q 5809 116 5809 72 
L 5809 -141 
Q 5809 -184 5766 -184 
L 4888 -172 
L 1497 -172 
L 619 -184 
Q 575 -184 575 -141 
L 575 72 
Q 575 116 619 116 
L 1497 103 
L 2994 103 
L 2994 1863 
L 1706 1863 
L 819 1850 
Q 772 1850 772 1894 
L 772 2100 
Q 772 2144 819 2144 
L 1706 2131 
L 2994 2131 
z
M 3334 5141 
Q 3925 4344 4753 3822 
Q 5359 3441 6225 3128 
Q 6128 3053 6072 2944 
Q 6038 2872 6006 2872 
Q 5991 2872 5919 2900 
Q 4100 3628 3159 4928 
Q 2597 4163 1866 3616 
Q 1288 3188 503 2822 
Q 456 2800 434 2800 
Q 406 2800 356 2869 
Q 278 2966 184 3009 
Q 2009 3803 2866 5044 
Q 2997 5231 3031 5381 
Q 3253 5347 3350 5306 
Q 3428 5278 3428 5228 
Q 3428 5200 3391 5178 
L 3334 5141 
z
M 3994 416 
Q 4294 806 4531 1319 
Q 4597 1469 4613 1581 
Q 4772 1528 4875 1466 
Q 4934 1428 4934 1394 
Q 4934 1366 4878 1319 
Q 4838 1288 4788 1184 
Q 4516 666 4294 359 
Q 4250 300 4228 300 
Q 4209 300 4153 347 
Q 4069 406 3994 416 
z
M 1753 1491 
Q 2022 1106 2231 581 
Q 2241 563 2241 553 
Q 2241 528 2181 500 
L 2066 441 
Q 2003 406 1981 406 
Q 1966 406 1956 438 
Q 1778 953 1494 1363 
Q 1481 1384 1481 1394 
Q 1481 1409 1553 1447 
L 1650 1491 
Q 1703 1519 1719 1519 
Q 1734 1519 1753 1491 
z
" transform="scale(0.015625)"/>
       <path id="YuGothic-Regular-2a4" d="M 6091 5375 
Q 5263 4638 4934 3869 
Q 4666 3238 4666 2431 
Q 4666 1509 5022 806 
Q 5359 144 6091 -513 
L 5956 -666 
Q 5022 78 4638 872 
Q 4306 1556 4306 2431 
Q 4306 3425 4747 4191 
Q 5138 4872 5956 5528 
L 6091 5375 
z
" transform="scale(0.015625)"/>
       <path id="YuGothic-Regular-eac" d="M 2453 4434 
L 1344 4434 
L 500 4422 
Q 456 4422 456 4466 
L 456 4691 
Q 456 4734 500 4734 
L 1344 4722 
L 5094 4722 
L 5947 4734 
Q 5991 4734 5991 4691 
L 5991 4466 
Q 5991 4422 5947 4422 
L 5094 4434 
L 2766 4434 
Q 2741 3609 2669 3122 
L 4416 3122 
L 5206 3134 
Q 5256 3134 5256 3084 
Q 5238 2822 5225 2431 
Q 5172 1294 4994 500 
Q 4894 66 4713 -97 
Q 4541 -250 4219 -250 
Q 3769 -250 3419 -206 
Q 3338 -194 3322 -178 
Q 3306 -159 3297 -84 
Q 3281 34 3219 153 
Q 3744 56 4206 56 
Q 4422 56 4534 188 
Q 4634 306 4691 575 
Q 4891 1522 4928 2834 
L 2631 2834 
Q 2494 2013 2197 1369 
Q 1694 328 731 -288 
Q 672 -322 656 -322 
Q 634 -322 578 -256 
Q 491 -169 372 -116 
Q 1434 503 1922 1541 
Q 2416 2609 2453 4434 
z
" transform="scale(0.015625)"/>
       <path id="YuGothic-Regular-503" d="M 5306 2303 
L 1113 2303 
L 1113 819 
L 1125 -313 
Q 1125 -359 1081 -359 
L 850 -359 
Q 806 -359 806 -313 
L 819 869 
L 819 3566 
L 806 4756 
Q 806 4806 850 4806 
L 1766 4794 
L 4659 4794 
L 5569 4806 
Q 5613 4806 5613 4756 
L 5600 3553 
L 5600 1191 
L 5613 200 
Q 5613 -66 5459 -184 
Q 5334 -294 4784 -294 
Q 4747 -294 4659 -294 
Q 4578 -294 4559 -278 
Q 4550 -266 4525 -191 
Q 4491 -75 4416 38 
Q 4653 16 5006 16 
Q 5194 16 5253 72 
Q 5306 122 5306 256 
L 5306 2303 
z
M 3316 2572 
L 5306 2572 
L 5306 4519 
L 3316 4519 
L 3316 2572 
z
M 3028 2572 
L 3028 4519 
L 1113 4519 
L 1113 2572 
L 3028 2572 
z
" transform="scale(0.015625)"/>
       <path id="YuGothic-Regular-2a5" d="M 306 5375 
L 441 5528 
Q 1375 4784 1759 3991 
Q 2091 3306 2091 2431 
Q 2091 1434 1653 672 
Q 1263 -13 441 -666 
L 306 -513 
Q 1138 231 1463 997 
Q 1731 1625 1731 2431 
Q 1731 3353 1375 4059 
Q 1038 4725 306 5375 
z
" transform="scale(0.015625)"/>
      </defs>
      <use xlink:href="#YuGothic-Regular-f64"/>
      <use xlink:href="#YuGothic-Regular-f3d" transform="translate(100 0)"/>
      <use xlink:href="#YuGothic-Regular-f8b" transform="translate(200 0)"/>
      <use xlink:href="#YuGothic-Regular-6dc" transform="translate(300 0)"/>
      <use xlink:href="#YuGothic-Regular-2a4" transform="translate(400 0)"/>
      <use xlink:href="#YuGothic-Regular-eac" transform="translate(500 0)"/>
      <use xlink:href="#YuGothic-Regular-503" transform="translate(600 0)"/>
      <use xlink:href="#YuGothic-Regular-2a5" transform="translate(700 0)"/>
     </g>
    </g>
   </g>
   <g id="patch_3">
    <path d="M 44.882812 242.6 
L 44.882812 7.2 
" style="fill: none; stroke: #000000; stroke-width: 0.8; stroke-linejoin: miter; stroke-linecap: square"/>
   </g>
   <g id="patch_4">
    <path d="M 519.242813 242.6 
L 519.242813 7.2 
" style="fill: none; stroke: #000000; stroke-width: 0.8; stroke-linejoin: miter; stroke-linecap: square"/>
   </g>
   <g id="patch_5">
    <path d="M 44.882812 242.6 
L 519.242813 242.6 
" style="fill: none; stroke: #000000; stroke-width: 0.8; stroke-linejoin: miter; stroke-linecap: square"/>
   </g>
   <g id="patch_6">
    <path d="M 44.882812 7.2 
L 519.242813 7.2 
" style="fill: none; stroke: #000000; stroke-width: 0.8; stroke-linejoin: miter; stroke-linecap: square"/>
   </g>
   <g id="legend_1">
    <g id="patch_7">
     <path d="M 51.882812 75.2 
L 143.882812 75.2 
Q 145.882812 75.2 145.882812 73.2 
L 145.882812 14.2 
Q 145.882812 12.2 143.882812 12.2 
L 51.882812 12.2 
Q 49.882812 12.2 49.882812 14.2 
L 49.882812 73.2 
Q 49.882812 75.2 51.882812 75.2 
z
" style="fill: #ffffff; opacity: 0.8; stroke: #cccccc; stroke-linejoin: miter"/>
    </g>
    <g id="patch_8">
     <path d="M 53.882812 24.998828 
L 73.882812 24.998828 
L 73.882812 17.998828 
L 53.882812 17.998828 
z
" style="fill: #d62728; fill-opacity: 0.85"/>
    </g>
    <g id="text_23">
     <!-- ネットワーク -->
     <g transform="translate(81.882812 24.998828) scale(0.1 -0.1)">
      <defs>
       <path id="YuGothic-Regular-3cb" d="M 3381 2297 
L 3381 959 
Q 3381 328 3400 -166 
Q 3400 -241 3328 -247 
Q 3275 -253 3203 -253 
Q 3134 -253 3078 -247 
Q 3009 -241 3009 -159 
Q 3034 481 3034 953 
L 3034 2041 
Q 2119 1350 934 747 
Q 894 728 866 728 
Q 825 728 794 763 
Q 691 878 538 934 
Q 1934 1588 2859 2303 
Q 3631 2894 4103 3419 
L 2175 3406 
Q 1803 3406 1375 3369 
Q 1356 3366 1344 3366 
Q 1288 3366 1281 3419 
Q 1256 3541 1234 3744 
Q 1666 3706 2188 3706 
L 3841 3713 
Q 4244 3713 4347 3763 
Q 4381 3781 4413 3781 
Q 4456 3781 4494 3744 
Q 4591 3659 4659 3559 
Q 4684 3525 4684 3497 
Q 4684 3456 4616 3419 
Q 4513 3366 4450 3303 
Q 3959 2775 3381 2297 
z
M 2400 4844 
Q 2484 5016 2528 5075 
Q 2563 5122 2597 5122 
Q 2616 5122 2650 5113 
Q 3384 4884 3878 4594 
Q 3922 4575 3922 4541 
Q 3922 4522 3903 4488 
Q 3872 4422 3797 4319 
Q 3769 4275 3738 4275 
Q 3719 4275 3688 4294 
Q 3203 4584 2400 4844 
z
M 3959 1978 
Q 4050 2119 4109 2197 
Q 4134 2234 4153 2234 
Q 4166 2234 4197 2222 
Q 4953 1900 5619 1422 
Q 5666 1384 5666 1359 
Q 5666 1344 5650 1319 
Q 5581 1200 5497 1106 
Q 5469 1075 5453 1075 
Q 5438 1075 5394 1106 
Q 4806 1603 3959 1978 
z
" transform="scale(0.015625)"/>
       <path id="YuGothic-Regular-3c1" d="M 1369 2988 
Q 1606 3128 1613 3128 
Q 1631 3138 1647 3138 
Q 1672 3138 1706 3097 
Q 1997 2725 2219 2228 
Q 2231 2194 2231 2181 
Q 2231 2159 2194 2138 
Q 2091 2069 1981 2028 
Q 1966 2022 1953 2022 
Q 1922 2022 1900 2069 
Q 1656 2644 1369 2988 
z
M 2609 3297 
Q 2816 3413 2853 3431 
Q 2872 3438 2884 3438 
Q 2919 3438 2944 3400 
Q 3203 3047 3409 2522 
Q 3416 2503 3416 2494 
Q 3416 2466 3378 2447 
Q 3225 2359 3159 2338 
Q 3144 2331 3131 2331 
Q 3109 2331 3091 2375 
Q 2872 2938 2609 3297 
z
M 4600 3316 
Q 4853 3250 5016 3150 
Q 5056 3125 5056 3081 
Q 5056 3044 5025 3016 
Q 4925 2928 4844 2731 
Q 4422 1706 3903 1063 
Q 3294 309 2591 -147 
Q 2556 -169 2528 -169 
Q 2506 -169 2488 -153 
Q 2388 -59 2213 -25 
Q 2697 278 3031 584 
Q 3306 838 3634 1234 
Q 4181 1909 4513 2841 
Q 4581 3047 4600 3316 
z
" transform="scale(0.015625)"/>
       <path id="YuGothic-Regular-3c6" d="M 2841 3109 
Q 3934 2809 4931 2222 
Q 4975 2197 4975 2169 
Q 4975 2159 4972 2144 
Q 4919 2009 4856 1913 
Q 4828 1875 4800 1875 
Q 4778 1875 4747 1894 
Q 3866 2463 2841 2759 
L 2841 1141 
Q 2841 1088 2859 -78 
Q 2859 -156 2788 -156 
Q 2731 -159 2666 -159 
Q 2597 -159 2538 -156 
Q 2459 -156 2459 -72 
Q 2488 697 2488 1131 
L 2488 4172 
Q 2488 4709 2416 5031 
Q 2700 5009 2856 4959 
Q 2922 4941 2922 4884 
Q 2922 4853 2897 4794 
Q 2841 4669 2841 4206 
L 2841 3109 
z
" transform="scale(0.015625)"/>
       <path id="YuGothic-Regular-3ed" d="M 1659 4122 
L 1659 3200 
Q 1659 2888 1672 2453 
Q 1672 2375 1606 2375 
L 1353 2375 
Q 1281 2375 1281 2444 
Q 1306 2888 1306 3194 
L 1306 3713 
Q 1306 4056 1281 4403 
Q 1281 4447 1338 4447 
Q 1738 4428 2197 4428 
L 4519 4428 
Q 4834 4428 4897 4472 
Q 4931 4497 4969 4497 
Q 5006 4497 5044 4472 
Q 5150 4406 5263 4281 
Q 5294 4244 5294 4209 
Q 5294 4166 5250 4122 
Q 5197 4069 5153 3866 
Q 4919 2831 4438 1875 
Q 3888 784 2888 -38 
Q 2844 -78 2797 -78 
Q 2766 -78 2741 -59 
Q 2628 38 2459 63 
Q 3547 897 4109 2009 
Q 4641 3059 4834 4122 
L 1659 4122 
z
" transform="scale(0.015625)"/>
       <path id="YuGothic-Regular-296" d="M 794 2616 
Q 1225 2559 2113 2559 
L 4147 2559 
Q 5038 2559 5522 2578 
Q 5613 2578 5613 2506 
L 5613 2266 
Q 5613 2188 5522 2188 
Q 5188 2200 4678 2200 
L 4159 2200 
L 1666 2200 
L 934 2144 
Q 863 2144 844 2222 
Q 794 2413 794 2616 
z
" transform="scale(0.015625)"/>
       <path id="YuGothic-Regular-3ad" d="M 2913 3963 
L 4475 3994 
Q 4688 4000 4769 4053 
Q 4794 4066 4822 4066 
Q 4869 4066 4922 4034 
Q 5000 3981 5116 3866 
Q 5163 3813 5163 3766 
Q 5163 3728 5134 3700 
Q 5025 3603 4988 3503 
Q 4391 2234 3750 1500 
Q 2847 453 1747 -172 
Q 1725 -188 1703 -188 
Q 1675 -188 1647 -159 
Q 1528 -41 1350 0 
Q 2069 388 2597 828 
Q 3034 1194 3463 1697 
Q 4144 2488 4672 3694 
L 2734 3647 
Q 2147 2847 1453 2259 
Q 1413 2225 1378 2225 
Q 1350 2225 1319 2247 
Q 1188 2334 1038 2363 
Q 2072 3191 2663 4184 
Q 2944 4644 2991 4972 
Q 3259 4888 3394 4775 
Q 3438 4744 3438 4706 
Q 3438 4669 3394 4634 
Q 3275 4547 3188 4397 
Q 3028 4128 2913 3963 
z
" transform="scale(0.015625)"/>
      </defs>
      <use xlink:href="#YuGothic-Regular-3cb"/>
      <use xlink:href="#YuGothic-Regular-3c1" transform="translate(100 0)"/>
      <use xlink:href="#YuGothic-Regular-3c6" transform="translate(200 0)"/>
      <use xlink:href="#YuGothic-Regular-3ed" transform="translate(300 0)"/>
      <use xlink:href="#YuGothic-Regular-296" transform="translate(400 0)"/>
      <use xlink:href="#YuGothic-Regular-3ad" transform="translate(500 0)"/>
     </g>
    </g>
    <g id="patch_9">
     <path d="M 53.882812 39.998828 
L 73.882812 39.998828 
L 73.882812 32.998828 
L 53.882812 32.998828 
z
" style="fill: #2ca02c; fill-opacity: 0.85"/>
    </g>
    <g id="text_24">
     <!-- データベース -->
     <g transform="translate(81.882812 39.998828) scale(0.1 -0.1)">
      <defs>
       <path id="YuGothic-Regular-3c5" d="M 4825 5056 
L 5025 5178 
Q 5038 5188 5047 5188 
Q 5059 5188 5075 5172 
Q 5453 4850 5722 4353 
Q 5731 4334 5731 4322 
Q 5731 4303 5709 4288 
L 5547 4172 
Q 5534 4163 5522 4163 
Q 5497 4163 5484 4197 
Q 5216 4713 4825 5056 
z
M 5381 5403 
L 5563 5516 
Q 5581 5531 5594 5531 
Q 5603 5531 5619 5516 
Q 5969 5213 6263 4744 
Q 6275 4725 6275 4709 
Q 6275 4691 6253 4672 
L 6106 4556 
Q 6084 4547 6069 4547 
Q 6053 4547 6041 4572 
Q 5775 5047 5381 5403 
z
M 3431 2816 
Q 3388 1716 3053 1094 
Q 2644 341 1925 -91 
Q 1863 -128 1822 -128 
Q 1794 -128 1772 -109 
Q 1638 6 1472 56 
Q 1978 316 2275 609 
Q 2528 859 2719 1222 
Q 3041 1841 3053 2816 
L 1722 2816 
Q 1294 2816 806 2784 
Q 747 2784 731 2803 
Q 719 2816 709 2869 
Q 706 2891 684 3153 
Q 1188 3128 1722 3128 
L 4453 3128 
Q 5056 3128 5584 3153 
Q 5656 3153 5656 3063 
L 5656 2859 
Q 5656 2797 5578 2797 
Q 4997 2816 4459 2816 
L 3431 2816 
z
M 1466 4569 
Q 1934 4544 2431 4544 
L 3591 4544 
Q 4269 4544 4613 4563 
Q 4622 4566 4631 4566 
Q 4684 4566 4684 4488 
L 4684 4303 
Q 4684 4219 4606 4219 
Q 4263 4231 3591 4231 
L 2431 4231 
Q 1856 4231 1563 4209 
Q 1550 4209 1541 4209 
Q 1494 4209 1484 4281 
L 1466 4569 
z
" transform="scale(0.015625)"/>
       <path id="YuGothic-Regular-3bd" d="M 4000 1841 
Q 4422 1513 4784 1113 
Q 4806 1091 4806 1069 
Q 4806 1050 4784 1022 
Q 4731 941 4613 850 
Q 4581 828 4566 828 
Q 4550 828 4528 856 
Q 4172 1269 3781 1584 
Q 2922 575 1528 -184 
Q 1488 -209 1456 -209 
Q 1422 -209 1394 -181 
Q 1294 -78 1113 -9 
Q 2553 663 3506 1784 
Q 3113 2113 2469 2463 
Q 2522 2534 2647 2659 
Q 2681 2688 2697 2688 
Q 2713 2688 2738 2672 
Q 3288 2375 3731 2053 
Q 4328 2806 4716 3750 
L 2769 3709 
Q 2222 2959 1369 2213 
Q 1319 2169 1288 2169 
Q 1259 2169 1228 2194 
Q 1109 2297 991 2341 
Q 2153 3222 2809 4422 
Q 2966 4703 3025 4997 
Q 3216 4931 3409 4806 
Q 3453 4778 3453 4734 
Q 3453 4678 3391 4631 
Q 3272 4541 3184 4388 
Q 3075 4203 2944 4013 
L 4491 4038 
Q 4753 4044 4825 4094 
Q 4859 4125 4903 4125 
Q 4941 4125 4984 4100 
Q 5116 4022 5206 3909 
Q 5234 3878 5234 3844 
Q 5234 3797 5181 3756 
Q 5075 3675 5034 3591 
Q 4566 2578 4000 1841 
z
" transform="scale(0.015625)"/>
       <path id="YuGothic-Regular-3d7" d="M 4000 4050 
L 4194 4184 
Q 4206 4197 4219 4197 
Q 4228 4197 4244 4188 
Q 4613 3938 4966 3413 
Q 4978 3397 4978 3384 
Q 4978 3372 4959 3353 
L 4806 3225 
Q 4794 3213 4778 3213 
Q 4756 3213 4738 3241 
Q 4413 3753 4000 4050 
z
M 4538 4447 
L 4703 4575 
Q 4725 4591 4738 4591 
Q 4750 4591 4763 4581 
Q 5197 4266 5484 3847 
Q 5497 3828 5497 3813 
Q 5497 3794 5472 3775 
L 5325 3647 
Q 5309 3638 5297 3638 
Q 5278 3638 5263 3663 
Q 4956 4138 4538 4447 
z
M 647 1978 
Q 888 2106 1234 2463 
Q 1628 2847 2234 3475 
Q 2394 3634 2541 3634 
Q 2709 3634 2881 3488 
Q 4072 2456 5825 1375 
Q 5869 1347 5869 1316 
Q 5869 1300 5856 1272 
Q 5784 1116 5709 1025 
Q 5691 994 5669 994 
Q 5650 994 5613 1016 
Q 3919 2163 2716 3184 
Q 2625 3263 2559 3263 
Q 2491 3263 2431 3206 
Q 1956 2731 1356 2084 
Q 1228 1950 1088 1725 
Q 1053 1681 1016 1681 
Q 988 1681 959 1700 
Q 784 1841 647 1978 
z
" transform="scale(0.015625)"/>
       <path id="YuGothic-Regular-3b7" d="M 3628 2300 
Q 4713 1503 5475 678 
Q 5516 641 5516 616 
Q 5516 597 5484 559 
Q 5438 506 5309 378 
Q 5288 356 5272 356 
Q 5250 356 5216 391 
Q 4428 1291 3416 2038 
Q 2297 866 1106 225 
Q 1066 203 1041 203 
Q 1009 203 978 238 
Q 878 350 709 425 
Q 2063 1116 3066 2178 
Q 3769 2938 4288 3931 
L 2291 3931 
Q 1731 3931 1394 3897 
Q 1384 3897 1375 3897 
Q 1325 3897 1319 3950 
Q 1291 4103 1291 4263 
Q 1600 4244 2253 4244 
L 4134 4244 
Q 4375 4244 4459 4297 
Q 4478 4306 4503 4306 
Q 4553 4306 4588 4275 
Q 4684 4206 4784 4091 
Q 4813 4059 4813 4019 
Q 4813 3963 4766 3938 
Q 4694 3897 4600 3741 
Q 4153 2941 3628 2300 
z
" transform="scale(0.015625)"/>
      </defs>
      <use xlink:href="#YuGothic-Regular-3c5"/>
      <use xlink:href="#YuGothic-Regular-296" transform="translate(96 0)"/>
      <use xlink:href="#YuGothic-Regular-3bd" transform="translate(196 0)"/>
      <use xlink:href="#YuGothic-Regular-3d7" transform="translate(296 0)"/>
      <use xlink:href="#YuGothic-Regular-296" transform="translate(396 0)"/>
      <use xlink:href="#YuGothic-Regular-3b7" transform="translate(496 0)"/>
     </g>
    </g>
    <g id="patch_10">
     <path d="M 53.882812 54.998828 
L 73.882812 54.998828 
L 73.882812 47.998828 
L 53.882812 47.998828 
z
" style="fill: #ff7f0e; fill-opacity: 0.85"/>
    </g>
    <g id="text_25">
     <!-- ストレージ -->
     <g transform="translate(81.882812 54.998828) scale(0.1 -0.1)">
      <defs>
       <path id="YuGothic-Regular-3ea" d="M 1959 813 
Q 2819 1106 3744 1638 
Q 4753 2222 5416 2900 
Q 5416 2684 5453 2541 
Q 5459 2519 5459 2500 
Q 5459 2466 5425 2431 
Q 4816 1872 3825 1294 
Q 3113 875 2259 538 
Q 1981 425 1928 366 
Q 1878 316 1834 316 
Q 1800 316 1766 344 
Q 1663 428 1581 531 
Q 1556 566 1556 603 
Q 1556 634 1575 672 
Q 1600 741 1600 978 
L 1625 3297 
Q 1628 3484 1628 3606 
Q 1628 4181 1569 4500 
Q 1891 4469 2016 4416 
Q 2075 4394 2075 4341 
Q 2075 4306 2050 4263 
Q 1988 4150 1978 3303 
L 1959 813 
z
" transform="scale(0.015625)"/>
       <path id="YuGothic-Regular-3b6" d="M 4325 4775 
L 4519 4909 
Q 4531 4919 4544 4919 
Q 4553 4919 4569 4909 
Q 4938 4659 5291 4134 
Q 5303 4122 5303 4109 
Q 5303 4097 5288 4078 
L 5131 3950 
Q 5119 3938 5103 3938 
Q 5081 3938 5063 3966 
Q 4741 4475 4325 4775 
z
M 4863 5172 
L 5031 5300 
Q 5050 5316 5063 5316 
Q 5075 5316 5088 5306 
Q 5522 4991 5809 4572 
Q 5822 4553 5822 4538 
Q 5822 4519 5797 4500 
L 5650 4372 
Q 5638 4363 5622 4363 
Q 5603 4363 5588 4388 
Q 5281 4863 4863 5172 
z
M 819 2934 
Q 847 2972 909 3063 
Q 959 3134 978 3163 
Q 1006 3203 1044 3203 
Q 1059 3203 1081 3194 
Q 1697 2975 2169 2631 
Q 2219 2597 2219 2563 
Q 2219 2541 2200 2509 
Q 2188 2484 2072 2313 
Q 2047 2272 2019 2272 
Q 1994 2272 1956 2306 
Q 1491 2681 819 2934 
z
M 1575 4406 
Q 1647 4509 1741 4628 
Q 1775 4675 1797 4675 
Q 1813 4675 1844 4659 
Q 2491 4375 2919 4006 
Q 2963 3975 2963 3950 
Q 2963 3931 2938 3894 
Q 2856 3772 2797 3694 
Q 2778 3666 2753 3666 
Q 2728 3666 2688 3700 
Q 2225 4116 1575 4406 
z
M 1356 488 
Q 1691 569 1966 706 
Q 3016 1266 3725 1800 
Q 4841 2675 5541 3572 
Q 5572 3378 5650 3241 
Q 5663 3219 5663 3194 
Q 5663 3156 5619 3106 
Q 4925 2275 3909 1506 
Q 3222 969 2053 328 
Q 1906 250 1772 116 
Q 1741 81 1703 81 
Q 1663 81 1625 122 
Q 1481 278 1356 488 
z
" transform="scale(0.015625)"/>
      </defs>
      <use xlink:href="#YuGothic-Regular-3b7"/>
      <use xlink:href="#YuGothic-Regular-3c6" transform="translate(100 0)"/>
      <use xlink:href="#YuGothic-Regular-3ea" transform="translate(200 0)"/>
      <use xlink:href="#YuGothic-Regular-296" transform="translate(300 0)"/>
      <use xlink:href="#YuGothic-Regular-3b6" transform="translate(400 0)"/>
     </g>
    </g>
    <g id="patch_11">
     <path d="M 53.882812 69.998828 
L 73.882812 69.998828 
L 73.882812 62.998828 
L 53.882812 62.998828 
z
" style="fill: #1f77b4; fill-opacity: 0.85"/>
    </g>
    <g id="text_26">
     <!-- 仮想マシン -->
     <g transform="translate(81.882812 69.998828) scale(0.1 -0.1)">
      <defs>
       <path id="YuGothic-Regular-540" d="M 4525 1069 
Q 5141 453 6200 -56 
Q 6103 -134 6047 -238 
Q 6003 -313 5984 -313 
Q 5966 -313 5900 -275 
Q 4934 247 4344 847 
Q 3778 188 2816 -319 
Q 2750 -350 2734 -350 
Q 2713 -350 2663 -281 
Q 2600 -194 2500 -134 
Q 3522 341 4141 1063 
Q 3450 1881 3213 3016 
L 2828 3016 
Q 2816 2100 2700 1519 
Q 2494 441 1906 -294 
Q 1856 -356 1834 -356 
Q 1813 -356 1766 -300 
Q 1697 -213 1600 -159 
Q 1969 234 2172 734 
Q 2319 1091 2413 1594 
Q 2534 2234 2534 3481 
L 2522 4781 
Q 2522 4825 2566 4825 
L 3456 4813 
L 5106 4813 
L 5978 4825 
Q 6022 4825 6022 4781 
L 6022 4575 
Q 6022 4531 5978 4531 
L 5106 4544 
L 2828 4544 
L 2828 3272 
L 5088 3272 
Q 5188 3272 5228 3291 
Q 5272 3316 5297 3316 
Q 5341 3316 5456 3206 
Q 5559 3113 5559 3066 
Q 5559 3025 5516 2991 
Q 5459 2953 5369 2728 
Q 4991 1706 4525 1069 
z
M 4325 1288 
Q 4850 1994 5150 3016 
L 3475 3016 
Q 3697 2009 4325 1288 
z
M 1394 3775 
L 1394 634 
L 1406 -384 
Q 1406 -428 1363 -428 
L 1131 -428 
Q 1088 -428 1088 -384 
L 1100 634 
L 1100 2356 
Q 1100 2831 1119 3303 
Q 822 2838 441 2400 
Q 391 2341 369 2341 
Q 347 2341 319 2388 
Q 253 2503 172 2547 
Q 1119 3578 1572 4850 
Q 1663 5109 1681 5288 
Q 1844 5231 1988 5166 
Q 2053 5131 2053 5094 
Q 2053 5059 2003 5019 
Q 1944 4969 1869 4781 
Q 1641 4231 1394 3775 
z
" transform="scale(0.015625)"/>
       <path id="YuGothic-Regular-adf" d="M 1956 3719 
Q 1966 3025 1981 2263 
L 1988 1847 
Q 1991 1734 1991 1722 
Q 1991 1672 1944 1672 
L 1728 1672 
Q 1681 1672 1681 1722 
Q 1681 1734 1694 2388 
Q 1709 3081 1722 3681 
Q 1328 2841 600 2253 
Q 553 2213 531 2213 
Q 506 2213 459 2278 
Q 403 2359 306 2413 
Q 1178 3028 1644 3963 
L 1272 3963 
L 550 3950 
Q 503 3950 503 3994 
L 503 4172 
Q 503 4219 550 4219 
L 1272 4206 
L 1694 4206 
L 1694 4653 
Q 1694 5084 1656 5253 
Q 1816 5247 1969 5222 
Q 2034 5213 2034 5172 
Q 2034 5147 2009 5069 
Q 1978 4972 1978 4653 
L 1978 4206 
L 2188 4206 
L 2903 4219 
Q 2950 4219 2950 4172 
L 2950 3994 
Q 2950 3950 2903 3950 
L 2188 3963 
L 2003 3963 
Q 2441 3222 2944 2834 
Q 2866 2784 2816 2700 
Q 2772 2638 2747 2638 
Q 2725 2638 2675 2688 
Q 2253 3109 1956 3719 
z
M 4013 4947 
L 4800 4947 
L 5497 4959 
Q 5541 4959 5541 4916 
L 5528 4153 
L 5528 2559 
L 5541 1797 
Q 5541 1753 5497 1753 
L 4800 1766 
L 4013 1766 
L 3319 1753 
Q 3275 1753 3275 1797 
L 3288 2559 
L 3288 4153 
L 3275 4916 
Q 3275 4959 3319 4959 
L 4013 4947 
z
M 3563 2797 
L 3563 2016 
L 5247 2016 
L 5247 2797 
L 3563 2797 
z
M 3563 3041 
L 5247 3041 
L 5247 3750 
L 3563 3750 
L 3563 3041 
z
M 3563 3994 
L 5247 3994 
L 5247 4691 
L 3563 4691 
L 3563 3994 
z
M 4491 775 
Q 4581 703 4684 666 
Q 4769 631 4769 581 
Q 4769 563 4763 519 
Q 4669 6 4384 -147 
Q 4113 -294 3275 -294 
Q 2500 -294 2316 -184 
Q 2175 -97 2128 3 
Q 2072 119 2072 341 
L 2072 991 
Q 2072 1284 2034 1484 
Q 2200 1475 2353 1441 
Q 2425 1419 2425 1388 
Q 2425 1381 2394 1300 
Q 2359 1225 2359 959 
L 2359 422 
Q 2359 153 2481 72 
Q 2644 -25 3269 -25 
Q 4013 -25 4228 109 
Q 4459 238 4491 775 
z
M 5209 1363 
Q 5647 878 5969 288 
Q 5978 272 5978 263 
Q 5978 241 5906 197 
L 5803 134 
Q 5734 91 5719 91 
Q 5700 91 5688 122 
Q 5353 803 4966 1222 
Q 4953 1241 4953 1250 
Q 4953 1269 5016 1306 
L 5113 1363 
Q 5156 1388 5172 1388 
Q 5191 1388 5209 1363 
z
M 1394 1141 
Q 1175 500 775 6 
Q 750 -22 731 -22 
Q 713 -22 666 6 
L 569 72 
Q 494 122 494 138 
Q 494 150 516 172 
Q 950 672 1125 1253 
Q 1134 1288 1156 1288 
Q 1175 1288 1241 1259 
L 1338 1222 
Q 1400 1194 1400 1166 
Q 1400 1153 1394 1141 
z
M 3091 1650 
Q 3484 1347 3819 884 
Q 3838 856 3838 841 
Q 3838 816 3788 781 
L 3697 716 
Q 3638 675 3616 675 
Q 3597 675 3578 703 
Q 3294 1159 2875 1503 
Q 2853 1522 2853 1531 
Q 2853 1550 2903 1588 
L 2994 1644 
Q 3028 1669 3050 1669 
Q 3069 1669 3091 1650 
z
" transform="scale(0.015625)"/>
       <path id="YuGothic-Regular-3dc" d="M 3406 1384 
Q 3772 1028 4103 603 
Q 4131 569 4131 547 
Q 4131 525 4103 494 
Q 4031 416 3928 347 
Q 3894 325 3881 325 
Q 3863 325 3834 359 
Q 2975 1475 1888 2253 
Q 1978 2356 2075 2441 
Q 2106 2466 2125 2466 
Q 2147 2466 2184 2441 
Q 2719 2050 3181 1606 
Q 4359 2594 5063 3541 
L 2209 3541 
Q 1472 3541 909 3491 
Q 897 3488 881 3488 
Q 822 3488 813 3541 
Q 784 3706 775 3897 
Q 1366 3853 2203 3853 
L 4794 3853 
Q 5147 3853 5222 3894 
Q 5266 3916 5303 3916 
Q 5350 3916 5384 3881 
Q 5475 3803 5597 3656 
Q 5622 3619 5622 3581 
Q 5622 3519 5563 3484 
Q 5425 3397 5338 3291 
Q 4572 2344 3406 1384 
z
" transform="scale(0.015625)"/>
       <path id="YuGothic-Regular-3b5" d="M 838 2931 
L 997 3163 
Q 1025 3203 1063 3203 
Q 1078 3203 1100 3194 
Q 1716 2975 2188 2631 
Q 2238 2597 2238 2563 
Q 2238 2541 2219 2509 
Q 2206 2484 2091 2313 
Q 2066 2272 2038 2272 
Q 2013 2272 1975 2306 
Q 1509 2678 838 2931 
z
M 1594 4403 
Q 1663 4500 1759 4628 
Q 1794 4675 1816 4675 
Q 1831 4675 1863 4659 
Q 2509 4375 2938 4006 
Q 2981 3975 2981 3950 
Q 2981 3931 2956 3891 
Q 2875 3772 2816 3694 
Q 2797 3666 2772 3666 
Q 2747 3666 2706 3700 
Q 2244 4113 1594 4403 
z
M 1375 488 
Q 1709 569 1984 703 
Q 3034 1263 3744 1797 
Q 4859 2672 5559 3572 
Q 5591 3378 5669 3238 
Q 5681 3216 5681 3194 
Q 5681 3156 5638 3103 
Q 4944 2275 3928 1506 
Q 3241 972 2072 328 
Q 1925 250 1791 116 
Q 1759 81 1722 81 
Q 1681 81 1644 122 
Q 1503 275 1375 488 
z
" transform="scale(0.015625)"/>
       <path id="YuGothic-Regular-3f1" d="M 1141 4056 
Q 1225 4166 1338 4281 
Q 1366 4309 1394 4309 
Q 1409 4309 1441 4294 
Q 2059 3928 2563 3463 
Q 2597 3428 2597 3403 
Q 2597 3384 2581 3359 
Q 2503 3244 2409 3150 
Q 2381 3122 2363 3122 
Q 2347 3122 2325 3144 
Q 1734 3703 1141 4056 
z
M 1294 641 
Q 1631 728 1909 878 
Q 2981 1438 3759 2059 
Q 4813 2906 5466 3756 
Q 5481 3603 5563 3444 
Q 5581 3406 5581 3375 
Q 5581 3319 5525 3250 
Q 4856 2472 3950 1759 
Q 3138 1125 2038 519 
Q 1819 394 1709 275 
Q 1672 238 1641 238 
Q 1609 238 1569 275 
Q 1441 406 1294 641 
z
" transform="scale(0.015625)"/>
      </defs>
      <use xlink:href="#YuGothic-Regular-540"/>
      <use xlink:href="#YuGothic-Regular-adf" transform="translate(100 0)"/>
      <use xlink:href="#YuGothic-Regular-3dc" transform="translate(200 0)"/>
      <use xlink:href="#YuGothic-Regular-3b5" transform="translate(300 0)"/>
      <use xlink:href="#YuGothic-Regular-3f1" transform="translate(400 0)"/>
     </g>
    </g>
   </g>
  </g>
 </g>
 <defs>
  <clipPath id="p43c66de1cc">
   <rect x="44.882812" y="7.2" width="474.36" height="235.4"/>
  </clipPath>
 </defs>
</svg>
