<?xml version="1.0" encoding="UTF-8" standalone="no"?>
<!DOCTYPE svg PUBLIC "-//W3C//DTD SVG 1.1//EN"
 "http://www.w3.org/Graphics/SVG/1.1/DTD/svg11.dtd">
<!-- Generated by graphviz version 16.1.0 (20260904.0139)
 -->
<!-- Title: layout Pages: 1 -->
<svg width="198pt" height="175pt"
 viewBox="0.00 0.00 198.00 175.00" xmlns="http://www.w3.org/2000/svg" xmlns:xlink="http://www.w3.org/1999/xlink">
<g id="graph0" class="graph" transform="scale(1 1) rotate(0) translate(4 171.44)">
<title>layout</title>
<polygon fill="white" stroke="none" points="-4,4 -4,-171.44 193.82,-171.44 193.82,4 -4,4"/>
<!-- a -->
<g id="node1" class="node">
<title>a</title>
<ellipse fill="#4e79a7" stroke="black" cx="104.59" cy="-72.3" rx="12.6" ry="12.6"/>
</g>
<!-- b -->
<g id="node2" class="node">
<title>b</title>
<ellipse fill="#4e79a7" stroke="black" cx="121.46" cy="-111.28" rx="12.6" ry="12.6"/>
</g>
<!-- a&#45;&#45;b -->
<g id="edge1" class="edge">
<title>a&#45;&#45;b</title>
<path fill="none" stroke="black" d="M109.74,-84.21C111.83,-89.04 114.25,-94.62 116.34,-99.44"/>
</g>
<!-- c -->
<g id="node3" class="node">
<title>c</title>
<ellipse fill="#4e79a7" stroke="black" cx="133.25" cy="-27.79" rx="12.6" ry="12.6"/>
</g>
<!-- a&#45;&#45;c -->
<g id="edge2" class="edge">
<title>a&#45;&#45;c</title>
<path fill="none" stroke="black" d="M111.53,-61.53C115.97,-54.63 121.71,-45.71 126.18,-38.77"/>
</g>
<!-- d -->
<g id="node4" class="node">
<title>d</title>
<ellipse fill="#4e79a7" stroke="black" cx="66.12" cy="-90.36" rx="12.6" ry="12.6"/>
</g>
<!-- a&#45;&#45;d -->
<g id="edge3" class="edge">
<title>a&#45;&#45;d</title>
<path fill="none" stroke="black" d="M92.84,-77.82C88.06,-80.06 82.56,-82.64 77.8,-84.88"/>
</g>
<!-- e -->
<g id="node5" class="node">
<title>e</title>
<ellipse fill="#4e79a7" stroke="black" cx="155.33" cy="-154.84" rx="12.6" ry="12.6"/>
</g>
<!-- b&#45;&#45;e -->
<g id="edge4" class="edge">
<title>b&#45;&#45;e</title>
<path fill="none" stroke="black" d="M129.31,-121.38C134.79,-128.42 142.05,-137.76 147.52,-144.79"/>
</g>
<!-- f -->
<g id="node6" class="node">
<title>f</title>
<ellipse fill="#4e79a7" stroke="black" cx="177.22" cy="-105.56" rx="12.6" ry="12.6"/>
</g>
<!-- b&#45;&#45;f -->
<g id="edge5" class="edge">
<title>b&#45;&#45;f</title>
<path fill="none" stroke="black" d="M134.39,-109.95C143.4,-109.03 155.37,-107.8 164.36,-106.88"/>
</g>
<!-- g -->
<g id="node7" class="node">
<title>g</title>
<ellipse fill="#4e79a7" stroke="black" cx="170.89" cy="-56.19" rx="12.6" ry="12.6"/>
</g>
<!-- c&#45;&#45;g -->
<g id="edge6" class="edge">
<title>c&#45;&#45;g</title>
<path fill="none" stroke="black" d="M143.54,-35.55C148.85,-39.56 155.31,-44.43 160.62,-48.44"/>
</g>
<!-- h -->
<g id="node8" class="node">
<title>h</title>
<ellipse fill="#4e79a7" stroke="black" cx="173.68" cy="-12.6" rx="12.6" ry="12.6"/>
</g>
<!-- c&#45;&#45;h -->
<g id="edge7" class="edge">
<title>c&#45;&#45;h</title>
<path fill="none" stroke="black" d="M145.16,-23.31C150.29,-21.39 156.27,-19.14 161.43,-17.2"/>
</g>
<!-- i -->
<g id="node9" class="node">
<title>i</title>
<ellipse fill="#4e79a7" stroke="black" cx="12.6" cy="-77.87" rx="12.6" ry="12.6"/>
</g>
<!-- d&#45;&#45;i -->
<g id="edge8" class="edge">
<title>d&#45;&#45;i</title>
<path fill="none" stroke="black" d="M53.44,-87.4C44.9,-85.41 33.7,-82.8 25.19,-80.81"/>
</g>
<!-- j -->
<g id="node10" class="node">
<title>j</title>
<ellipse fill="#4e79a7" stroke="black" cx="49.59" cy="-37.59" rx="12.6" ry="12.6"/>
</g>
<!-- d&#45;&#45;j -->
<g id="edge9" class="edge">
<title>d&#45;&#45;j</title>
<path fill="none" stroke="black" d="M62.29,-78.12C59.62,-69.6 56.07,-58.27 53.41,-49.76"/>
</g>
<!-- e&#45;&#45;f -->
<g id="edge10" class="edge">
<title>e&#45;&#45;f</title>
<path fill="none" stroke="black" d="M160.63,-142.91C164.07,-135.16 168.54,-125.11 171.97,-117.38"/>
</g>
<!-- f&#45;&#45;g -->
<g id="edge13" class="edge">
<title>f&#45;&#45;g</title>
<path fill="none" stroke="black" d="M175.56,-92.59C174.62,-85.28 173.46,-76.18 172.52,-68.9"/>
</g>
<!-- g&#45;&#45;h -->
<g id="edge11" class="edge">
<title>g&#45;&#45;h</title>
<path fill="none" stroke="black" d="M171.71,-43.35C172.07,-37.72 172.49,-31.13 172.85,-25.5"/>
</g>
<!-- i&#45;&#45;j -->
<g id="edge12" class="edge">
<title>i&#45;&#45;j</title>
<path fill="none" stroke="black" d="M21.18,-68.53C27.07,-62.11 34.87,-53.62 40.8,-47.16"/>
</g>
</g>
</svg>
