<?xml version="1.0" encoding="UTF-8" standalone="no"?>
<!DOCTYPE svg PUBLIC "-//W3C//DTD SVG 1.1//EN"
 "http://www.w3.org/Graphics/SVG/1.1/DTD/svg11.dtd">
<!-- Generated by graphviz version 16.1.0 (20260904.0139)
 -->
<!-- Title: services Pages: 1 -->
<svg width="364pt" height="165pt"
 viewBox="0.00 0.00 364.00 165.00" xmlns="http://www.w3.org/2000/svg" xmlns:xlink="http://www.w3.org/1999/xlink">
<g id="graph0" class="graph" transform="scale(1 1) rotate(0) translate(4 161)">
<title>services</title>
<polygon fill="white" stroke="none" points="-4,4 -4,-161 360,-161 360,4 -4,4"/>
<!-- gateway -->
<g id="node1" class="node">
<title>gateway</title>
<path fill="#dbe9f6" stroke="black" d="M56.5,-111C56.5,-111 12,-111 12,-111 6,-111 0,-105 0,-99 0,-99 0,-87 0,-87 0,-81 6,-75 12,-75 12,-75 56.5,-75 56.5,-75 62.5,-75 68.5,-81 68.5,-87 68.5,-87 68.5,-99 68.5,-99 68.5,-105 62.5,-111 56.5,-111"/>
<text xml:space="preserve" text-anchor="middle" x="34.25" y="-87.95" font-family="Yu Gothic" font-size="14.00">gateway</text>
</g>
<!-- auth -->
<g id="node2" class="node">
<title>auth</title>
<path fill="#dbe9f6" stroke="black" d="M146.5,-157C146.5,-157 116.5,-157 116.5,-157 110.5,-157 104.5,-151 104.5,-145 104.5,-145 104.5,-133 104.5,-133 104.5,-127 110.5,-121 116.5,-121 116.5,-121 146.5,-121 146.5,-121 152.5,-121 158.5,-127 158.5,-133 158.5,-133 158.5,-145 158.5,-145 158.5,-151 152.5,-157 146.5,-157"/>
<text xml:space="preserve" text-anchor="middle" x="131.5" y="-133.95" font-family="Yu Gothic" font-size="14.00">auth</text>
</g>
<!-- gateway&#45;&gt;auth -->
<g id="edge1" class="edge">
<title>gateway&#45;&gt;auth</title>
<path fill="none" stroke="black" d="M68.83,-109.22C76.97,-113.15 85.7,-117.36 93.96,-121.36"/>
<polygon fill="black" stroke="black" points="92.21,-124.39 102.74,-125.59 95.25,-118.09 92.21,-124.39"/>
</g>
<!-- order -->
<g id="node3" class="node">
<title>order</title>
<path fill="#dbe9f6" stroke="black" d="M146.5,-63C146.5,-63 116.5,-63 116.5,-63 110.5,-63 104.5,-57 104.5,-51 104.5,-51 104.5,-39 104.5,-39 104.5,-33 110.5,-27 116.5,-27 116.5,-27 146.5,-27 146.5,-27 152.5,-27 158.5,-33 158.5,-39 158.5,-39 158.5,-51 158.5,-51 158.5,-57 152.5,-63 146.5,-63"/>
<text xml:space="preserve" text-anchor="middle" x="131.5" y="-39.95" font-family="Yu Gothic" font-size="14.00">order</text>
</g>
<!-- gateway&#45;&gt;order -->
<g id="edge2" class="edge">
<title>gateway&#45;&gt;order</title>
<path fill="none" stroke="black" d="M68.83,-76.08C76.97,-71.98 85.7,-67.58 93.96,-63.41"/>
<polygon fill="black" stroke="black" points="95.39,-66.61 102.75,-58.99 92.24,-60.36 95.39,-66.61"/>
</g>
<!-- catalog -->
<g id="node4" class="node">
<title>catalog</title>
<path fill="#dbe9f6" stroke="black" d="M249.5,-113C249.5,-113 211,-113 211,-113 205,-113 199,-107 199,-101 199,-101 199,-89 199,-89 199,-83 205,-77 211,-77 211,-77 249.5,-77 249.5,-77 255.5,-77 261.5,-83 261.5,-89 261.5,-89 261.5,-101 261.5,-101 261.5,-107 255.5,-113 249.5,-113"/>
<text xml:space="preserve" text-anchor="middle" x="230.25" y="-89.95" font-family="Yu Gothic" font-size="14.00">catalog</text>
</g>
<!-- gateway&#45;&gt;catalog -->
<g id="edge3" class="edge">
<title>gateway&#45;&gt;catalog</title>
<path fill="none" stroke="black" d="M68.6,-93.34C101.4,-93.68 151.59,-94.2 187.13,-94.57"/>
<polygon fill="black" stroke="black" points="187.02,-98.06 197.06,-94.67 187.09,-91.07 187.02,-98.06"/>
</g>
<!-- order&#45;&gt;catalog -->
<g id="edge5" class="edge">
<title>order&#45;&gt;catalog</title>
<path fill="none" stroke="black" d="M158.94,-58.66C168.07,-63.38 178.53,-68.79 188.54,-73.96"/>
<polygon fill="black" stroke="black" points="186.9,-77.05 197.39,-78.54 190.12,-70.84 186.9,-77.05"/>
</g>
<!-- payment -->
<g id="node5" class="node">
<title>payment</title>
<path fill="#dbe9f6" stroke="black" d="M254,-59C254,-59 206.5,-59 206.5,-59 200.5,-59 194.5,-53 194.5,-47 194.5,-47 194.5,-35 194.5,-35 194.5,-29 200.5,-23 206.5,-23 206.5,-23 254,-23 254,-23 260,-23 266,-29 266,-35 266,-35 266,-47 266,-47 266,-53 260,-59 254,-59"/>
<text xml:space="preserve" text-anchor="middle" x="230.25" y="-35.95" font-family="Yu Gothic" font-size="14.00">payment</text>
</g>
<!-- order&#45;&gt;payment -->
<g id="edge4" class="edge">
<title>order&#45;&gt;payment</title>
<path fill="none" stroke="black" d="M158.94,-43.91C166.31,-43.6 174.56,-43.26 182.73,-42.92"/>
<polygon fill="black" stroke="black" points="182.77,-46.42 192.62,-42.51 182.48,-39.43 182.77,-46.42"/>
</g>
<!-- notify -->
<g id="node6" class="node">
<title>notify</title>
<path fill="#dbe9f6" stroke="black" d="M344,-36C344,-36 314,-36 314,-36 308,-36 302,-30 302,-24 302,-24 302,-12 302,-12 302,-6 308,0 314,0 314,0 344,0 344,0 350,0 356,-6 356,-12 356,-12 356,-24 356,-24 356,-30 350,-36 344,-36"/>
<text xml:space="preserve" text-anchor="middle" x="329" y="-12.95" font-family="Yu Gothic" font-size="14.00">notify</text>
</g>
<!-- order&#45;&gt;notify -->
<g id="edge6" class="edge">
<title>order&#45;&gt;notify</title>
<path fill="none" stroke="black" d="M158.93,-28.4C169.56,-22.64 182.2,-16.9 194.5,-14 226.15,-6.53 263.19,-8.44 290.21,-11.7"/>
<polygon fill="black" stroke="black" points="289.63,-15.16 300,-13.01 290.55,-8.22 289.63,-15.16"/>
</g>
<!-- payment&#45;&gt;notify -->
<g id="edge7" class="edge">
<title>payment&#45;&gt;notify</title>
<path fill="none" stroke="black" d="M266.45,-32.63C274.38,-30.75 282.83,-28.74 290.84,-26.83"/>
<polygon fill="black" stroke="black" points="291.38,-30.3 300.3,-24.58 289.76,-23.49 291.38,-30.3"/>
</g>
</g>
</svg>
