<?xml version="1.0" encoding="UTF-8" standalone="no"?>
<!DOCTYPE svg PUBLIC "-//W3C//DTD SVG 1.1//EN"
 "http://www.w3.org/Graphics/SVG/1.1/DTD/svg11.dtd">
<!-- Generated by graphviz version 16.1.0 (20260904.0139)
 -->
<!-- Title: exceptions Pages: 1 -->
<svg width="787pt" height="260pt"
 viewBox="0.00 0.00 787.00 260.00" xmlns="http://www.w3.org/2000/svg" xmlns:xlink="http://www.w3.org/1999/xlink">
<g id="graph0" class="graph" transform="scale(1 1) rotate(0) translate(4 256)">
<title>exceptions</title>
<polygon fill="white" stroke="none" points="-4,4 -4,-256 782.75,-256 782.75,4 -4,4"/>
<!-- SystemExit -->
<g id="node1" class="node">
<title>SystemExit</title>
<polygon fill="#dbe9f6" stroke="black" points="151.25,-180 60.25,-180 60.25,-144 151.25,-144 151.25,-180"/>
<text xml:space="preserve" text-anchor="middle" x="105.75" y="-155.82" font-family="Consolas" font-size="14.00">SystemExit</text>
</g>
<!-- BaseException -->
<g id="node2" class="node">
<title>BaseException</title>
<polygon fill="#dbe9f6" stroke="black" points="297.5,-252 184,-252 184,-216 297.5,-216 297.5,-252"/>
<text xml:space="preserve" text-anchor="middle" x="240.75" y="-227.82" font-family="Consolas" font-size="14.00">BaseException</text>
</g>
<!-- SystemExit&#45;&gt;BaseException -->
<g id="edge1" class="edge">
<title>SystemExit&#45;&gt;BaseException</title>
<path fill="none" stroke="black" d="M139.47,-180.48C157,-189.57 178.62,-200.78 197.38,-210.51"/>
<polygon fill="none" stroke="black" points="195.63,-213.55 206.12,-215.04 198.85,-207.33 195.63,-213.55"/>
</g>
<!-- KeyboardInterrupt -->
<g id="node3" class="node">
<title>KeyboardInterrupt</title>
<polygon fill="#dbe9f6" stroke="black" points="312.5,-180 169,-180 169,-144 312.5,-144 312.5,-180"/>
<text xml:space="preserve" text-anchor="middle" x="240.75" y="-155.82" font-family="Consolas" font-size="14.00">KeyboardInterrupt</text>
</g>
<!-- KeyboardInterrupt&#45;&gt;BaseException -->
<g id="edge2" class="edge">
<title>KeyboardInterrupt&#45;&gt;BaseException</title>
<path fill="none" stroke="black" d="M240.75,-180.3C240.75,-187.59 240.75,-196.27 240.75,-204.46"/>
<polygon fill="none" stroke="black" points="237.25,-204.38 240.75,-214.38 244.25,-204.38 237.25,-204.38"/>
</g>
<!-- Exception -->
<g id="node4" class="node">
<title>Exception</title>
<polygon fill="#dbe9f6" stroke="black" points="414.5,-180 331,-180 331,-144 414.5,-144 414.5,-180"/>
<text xml:space="preserve" text-anchor="middle" x="372.75" y="-155.82" font-family="Consolas" font-size="14.00">Exception</text>
</g>
<!-- Exception&#45;&gt;BaseException -->
<g id="edge3" class="edge">
<title>Exception&#45;&gt;BaseException</title>
<path fill="none" stroke="black" d="M339.78,-180.48C322.72,-189.53 301.7,-200.68 283.41,-210.38"/>
<polygon fill="none" stroke="black" points="281.83,-207.25 274.64,-215.03 285.11,-213.44 281.83,-207.25"/>
</g>
<!-- ArithmeticError -->
<g id="node5" class="node">
<title>ArithmeticError</title>
<polygon fill="#dbe9f6" stroke="black" points="189,-108 60.5,-108 60.5,-72 189,-72 189,-108"/>
<text xml:space="preserve" text-anchor="middle" x="124.75" y="-83.83" font-family="Consolas" font-size="14.00">ArithmeticError</text>
</g>
<!-- ArithmeticError&#45;&gt;Exception -->
<g id="edge4" class="edge">
<title>ArithmeticError&#45;&gt;Exception</title>
<path fill="none" stroke="black" d="M189.35,-107.35C225.3,-116.69 271.06,-128.97 319.75,-143.48"/>
<polygon fill="none" stroke="black" points="318.48,-146.75 329.06,-146.27 320.49,-140.05 318.48,-146.75"/>
</g>
<!-- LookupError -->
<g id="node6" class="node">
<title>LookupError</title>
<polygon fill="#dbe9f6" stroke="black" points="358,-108 259.5,-108 259.5,-72 358,-72 358,-108"/>
<text xml:space="preserve" text-anchor="middle" x="308.75" y="-83.83" font-family="Consolas" font-size="14.00">LookupError</text>
</g>
<!-- LookupError&#45;&gt;Exception -->
<g id="edge5" class="edge">
<title>LookupError&#45;&gt;Exception</title>
<path fill="none" stroke="black" d="M324.57,-108.3C332.09,-116.53 341.22,-126.52 349.51,-135.58"/>
<polygon fill="none" stroke="black" points="346.76,-137.76 356.09,-142.78 351.93,-133.04 346.76,-137.76"/>
</g>
<!-- OSError -->
<g id="node7" class="node">
<title>OSError</title>
<polygon fill="#dbe9f6" stroke="black" points="471,-108 402.5,-108 402.5,-72 471,-72 471,-108"/>
<text xml:space="preserve" text-anchor="middle" x="436.75" y="-83.83" font-family="Consolas" font-size="14.00">OSError</text>
</g>
<!-- OSError&#45;&gt;Exception -->
<g id="edge6" class="edge">
<title>OSError&#45;&gt;Exception</title>
<path fill="none" stroke="black" d="M420.93,-108.3C413.41,-116.53 404.28,-126.52 395.99,-135.58"/>
<polygon fill="none" stroke="black" points="393.57,-133.04 389.41,-142.78 398.74,-137.76 393.57,-133.04"/>
</g>
<!-- ValueError -->
<g id="node8" class="node">
<title>ValueError</title>
<polygon fill="#dbe9f6" stroke="black" points="675.25,-108 584.25,-108 584.25,-72 675.25,-72 675.25,-108"/>
<text xml:space="preserve" text-anchor="middle" x="629.75" y="-83.83" font-family="Consolas" font-size="14.00">ValueError</text>
</g>
<!-- ValueError&#45;&gt;Exception -->
<g id="edge7" class="edge">
<title>ValueError&#45;&gt;Exception</title>
<path fill="none" stroke="black" d="M583.8,-103.51C539.52,-115.58 472.56,-133.82 425.97,-146.5"/>
<polygon fill="none" stroke="black" points="425.08,-143.12 416.35,-149.12 426.92,-149.87 425.08,-143.12"/>
</g>
<!-- ZeroDivisionError -->
<g id="node9" class="node">
<title>ZeroDivisionError</title>
<polygon fill="#dbe9f6" stroke="black" points="143.5,-36 0,-36 0,0 143.5,0 143.5,-36"/>
<text xml:space="preserve" text-anchor="middle" x="71.75" y="-11.82" font-family="Consolas" font-size="14.00">ZeroDivisionError</text>
</g>
<!-- ZeroDivisionError&#45;&gt;ArithmeticError -->
<g id="edge8" class="edge">
<title>ZeroDivisionError&#45;&gt;ArithmeticError</title>
<path fill="none" stroke="black" d="M84.85,-36.3C90.88,-44.27 98.17,-53.9 104.86,-62.74"/>
<polygon fill="none" stroke="black" points="102.06,-64.83 110.89,-70.69 107.64,-60.6 102.06,-64.83"/>
</g>
<!-- IndexError -->
<g id="node10" class="node">
<title>IndexError</title>
<polygon fill="#dbe9f6" stroke="black" points="252.25,-36 161.25,-36 161.25,0 252.25,0 252.25,-36"/>
<text xml:space="preserve" text-anchor="middle" x="206.75" y="-11.82" font-family="Consolas" font-size="14.00">IndexError</text>
</g>
<!-- IndexError&#45;&gt;LookupError -->
<g id="edge9" class="edge">
<title>IndexError&#45;&gt;LookupError</title>
<path fill="none" stroke="black" d="M232.23,-36.48C244.98,-45.24 260.6,-55.96 274.4,-65.42"/>
<polygon fill="none" stroke="black" points="272.13,-68.11 282.35,-70.88 276.09,-62.34 272.13,-68.11"/>
</g>
<!-- KeyError -->
<g id="node11" class="node">
<title>KeyError</title>
<polygon fill="#dbe9f6" stroke="black" points="346.75,-36 270.75,-36 270.75,0 346.75,0 346.75,-36"/>
<text xml:space="preserve" text-anchor="middle" x="308.75" y="-11.82" font-family="Consolas" font-size="14.00">KeyError</text>
</g>
<!-- KeyError&#45;&gt;LookupError -->
<g id="edge10" class="edge">
<title>KeyError&#45;&gt;LookupError</title>
<path fill="none" stroke="black" d="M308.75,-36.3C308.75,-43.59 308.75,-52.27 308.75,-60.46"/>
<polygon fill="none" stroke="black" points="305.25,-60.38 308.75,-70.38 312.25,-60.38 305.25,-60.38"/>
</g>
<!-- FileNotFoundError -->
<g id="node12" class="node">
<title>FileNotFoundError</title>
<polygon fill="#dbe9f6" stroke="black" points="508.5,-36 365,-36 365,0 508.5,0 508.5,-36"/>
<text xml:space="preserve" text-anchor="middle" x="436.75" y="-11.82" font-family="Consolas" font-size="14.00">FileNotFoundError</text>
</g>
<!-- FileNotFoundError&#45;&gt;OSError -->
<g id="edge11" class="edge">
<title>FileNotFoundError&#45;&gt;OSError</title>
<path fill="none" stroke="black" d="M436.75,-36.3C436.75,-43.59 436.75,-52.27 436.75,-60.46"/>
<polygon fill="none" stroke="black" points="433.25,-60.38 436.75,-70.38 440.25,-60.38 433.25,-60.38"/>
</g>
<!-- PermissionError -->
<g id="node13" class="node">
<title>PermissionError</title>
<polygon fill="#dbe9f6" stroke="black" points="655,-36 526.5,-36 526.5,0 655,0 655,-36"/>
<text xml:space="preserve" text-anchor="middle" x="590.75" y="-11.82" font-family="Consolas" font-size="14.00">PermissionError</text>
</g>
<!-- PermissionError&#45;&gt;OSError -->
<g id="edge12" class="edge">
<title>PermissionError&#45;&gt;OSError</title>
<path fill="none" stroke="black" d="M552.29,-36.48C530.83,-46.24 503.99,-58.44 481.58,-68.62"/>
<polygon fill="none" stroke="black" points="480.34,-65.34 472.69,-72.66 483.24,-71.71 480.34,-65.34"/>
</g>
<!-- UnicodeError -->
<g id="node14" class="node">
<title>UnicodeError</title>
<polygon fill="#dbe9f6" stroke="black" points="778.75,-36 672.75,-36 672.75,0 778.75,0 778.75,-36"/>
<text xml:space="preserve" text-anchor="middle" x="725.75" y="-11.82" font-family="Consolas" font-size="14.00">UnicodeError</text>
</g>
<!-- UnicodeError&#45;&gt;ValueError -->
<g id="edge13" class="edge">
<title>UnicodeError&#45;&gt;ValueError</title>
<path fill="none" stroke="black" d="M702.02,-36.3C690.13,-44.97 675.56,-55.6 662.61,-65.04"/>
<polygon fill="none" stroke="black" points="660.78,-62.04 654.76,-70.76 664.91,-67.7 660.78,-62.04"/>
</g>
</g>
</svg>
