<?xml version="1.0" encoding="UTF-8" standalone="no"?>
<!DOCTYPE svg PUBLIC "-//W3C//DTD SVG 1.1//EN"
 "http://www.w3.org/Graphics/SVG/1.1/DTD/svg11.dtd">
<!-- Generated by graphviz version 16.1.0 (20260904.0139)
 -->
<!-- Title: order Pages: 1 -->
<svg width="625pt" height="114pt"
 viewBox="0.00 0.00 625.00 114.00" xmlns="http://www.w3.org/2000/svg" xmlns:xlink="http://www.w3.org/1999/xlink">
<g id="graph0" class="graph" transform="scale(1 1) rotate(0) translate(4 109.75)">
<title>order</title>
<polygon fill="white" stroke="none" points="-4,4 -4,-109.75 621.05,-109.75 621.05,4 -4,4"/>
<!-- start -->
<g id="node1" class="node">
<title>start</title>
<ellipse fill="#e8f0fe" stroke="black" cx="5.4" cy="-22" rx="5.4" ry="5.4"/>
</g>
<!-- received -->
<g id="node2" class="node">
<title>received</title>
<path fill="#e8f0fe" stroke="black" d="M136.3,-40C136.3,-40 87.3,-40 87.3,-40 81.3,-40 75.3,-34 75.3,-28 75.3,-28 75.3,-16 75.3,-16 75.3,-10 81.3,-4 87.3,-4 87.3,-4 136.3,-4 136.3,-4 142.3,-4 148.3,-10 148.3,-16 148.3,-16 148.3,-28 148.3,-28 148.3,-34 142.3,-40 136.3,-40"/>
<text xml:space="preserve" text-anchor="middle" x="111.8" y="-19.57" font-family="Meiryo" font-size="14.00">受付済み</text>
</g>
<!-- start&#45;&gt;received -->
<g id="edge1" class="edge">
<title>start&#45;&gt;received</title>
<path fill="none" stroke="black" d="M11.16,-22C20.58,-22 42.52,-22 63.43,-22"/>
<polygon fill="black" stroke="black" points="63.33,-25.5 73.33,-22 63.33,-18.5 63.33,-25.5"/>
<text xml:space="preserve" text-anchor="middle" x="43.05" y="-30.45" font-family="Meiryo" font-size="14.00">注文</text>
</g>
<!-- paid -->
<g id="node3" class="node">
<title>paid</title>
<path fill="#e8f0fe" stroke="black" d="M284.3,-82C284.3,-82 221.05,-82 221.05,-82 215.05,-82 209.05,-76 209.05,-70 209.05,-70 209.05,-58 209.05,-58 209.05,-52 215.05,-46 221.05,-46 221.05,-46 284.3,-46 284.3,-46 290.3,-46 296.3,-52 296.3,-58 296.3,-58 296.3,-70 296.3,-70 296.3,-76 290.3,-82 284.3,-82"/>
<text xml:space="preserve" text-anchor="middle" x="252.67" y="-61.58" font-family="Meiryo" font-size="14.00">支払い済み</text>
</g>
<!-- received&#45;&gt;paid -->
<g id="edge2" class="edge">
<title>received&#45;&gt;paid</title>
<path fill="none" stroke="black" d="M148.56,-32.82C163.59,-37.36 181.4,-42.75 197.95,-47.75"/>
<polygon fill="black" stroke="black" points="196.57,-50.99 207.16,-50.54 198.6,-44.29 196.57,-50.99"/>
<text xml:space="preserve" text-anchor="middle" x="178.67" y="-53.96" font-family="Meiryo" font-size="14.00">pay</text>
</g>
<!-- cancelled -->
<g id="node6" class="node">
<title>cancelled</title>
<path fill="#fde2e1" stroke="black" d="M450.3,-36C450.3,-36 387.05,-36 387.05,-36 381.05,-36 375.05,-30 375.05,-24 375.05,-24 375.05,-12 375.05,-12 375.05,-6 381.05,0 387.05,0 387.05,0 450.3,0 450.3,0 456.3,0 462.3,-6 462.3,-12 462.3,-12 462.3,-24 462.3,-24 462.3,-30 456.3,-36 450.3,-36"/>
<text xml:space="preserve" text-anchor="middle" x="418.67" y="-15.57" font-family="Meiryo" font-size="14.00">キャンセル</text>
</g>
<!-- received&#45;&gt;cancelled -->
<g id="edge5" class="edge">
<title>received&#45;&gt;cancelled</title>
<path fill="none" stroke="black" d="M148.42,-18.9C166.56,-17.48 188.96,-15.95 209.05,-15.25 261.5,-13.41 321.4,-14.54 363.52,-15.86"/>
<polygon fill="black" stroke="black" points="363.29,-19.35 373.4,-16.18 363.52,-12.36 363.29,-19.35"/>
<text xml:space="preserve" text-anchor="middle" x="252.67" y="-23.7" font-family="Meiryo" font-size="14.00">cancel</text>
</g>
<!-- shipped -->
<g id="node4" class="node">
<title>shipped</title>
<path fill="#e8f0fe" stroke="black" d="M443.17,-102C443.17,-102 394.17,-102 394.17,-102 388.17,-102 382.17,-96 382.17,-90 382.17,-90 382.17,-78 382.17,-78 382.17,-72 388.17,-66 394.17,-66 394.17,-66 443.17,-66 443.17,-66 449.17,-66 455.17,-72 455.17,-78 455.17,-78 455.17,-90 455.17,-90 455.17,-96 449.17,-102 443.17,-102"/>
<text xml:space="preserve" text-anchor="middle" x="418.67" y="-81.58" font-family="Meiryo" font-size="14.00">発送済み</text>
</g>
<!-- paid&#45;&gt;shipped -->
<g id="edge3" class="edge">
<title>paid&#45;&gt;shipped</title>
<path fill="none" stroke="black" d="M296.76,-69.25C319.42,-72.02 347.22,-75.41 370.46,-78.24"/>
<polygon fill="black" stroke="black" points="369.94,-81.7 380.29,-79.44 370.79,-74.76 369.94,-81.7"/>
<text xml:space="preserve" text-anchor="middle" x="335.67" y="-84.83" font-family="Meiryo" font-size="14.00">ship</text>
</g>
<!-- paid&#45;&gt;cancelled -->
<g id="edge6" class="edge">
<title>paid&#45;&gt;cancelled</title>
<path fill="none" stroke="black" d="M296.7,-51.3C302.61,-49.58 308.6,-47.86 314.3,-46.25 330.37,-41.7 347.89,-36.87 363.85,-32.51"/>
<polygon fill="black" stroke="black" points="364.43,-35.98 373.16,-29.98 362.6,-29.23 364.43,-35.98"/>
<text xml:space="preserve" text-anchor="middle" x="335.67" y="-54.7" font-family="Meiryo" font-size="14.00">cancel</text>
</g>
<!-- delivered -->
<g id="node5" class="node">
<title>delivered</title>
<path fill="#e6f4ea" stroke="black" d="M605.05,-102C605.05,-102 556.05,-102 556.05,-102 550.05,-102 544.05,-96 544.05,-90 544.05,-90 544.05,-78 544.05,-78 544.05,-72 550.05,-66 556.05,-66 556.05,-66 605.05,-66 605.05,-66 611.05,-66 617.05,-72 617.05,-78 617.05,-78 617.05,-90 617.05,-90 617.05,-96 611.05,-102 605.05,-102"/>
<text xml:space="preserve" text-anchor="middle" x="580.55" y="-81.58" font-family="Meiryo" font-size="14.00">配達完了</text>
</g>
<!-- shipped&#45;&gt;delivered -->
<g id="edge4" class="edge">
<title>shipped&#45;&gt;delivered</title>
<path fill="none" stroke="black" d="M455.55,-84C478.28,-84 507.93,-84 532.53,-84"/>
<polygon fill="black" stroke="black" points="532.28,-87.5 542.28,-84 532.28,-80.5 532.28,-87.5"/>
<text xml:space="preserve" text-anchor="middle" x="503.17" y="-92.45" font-family="Meiryo" font-size="14.00">deliver</text>
</g>
</g>
</svg>
