<?xml version="1.0" encoding="UTF-8" standalone="no"?>
<!DOCTYPE svg PUBLIC "-//W3C//DTD SVG 1.1//EN"
 "http://www.w3.org/Graphics/SVG/1.1/DTD/svg11.dtd">
<!-- Generated by graphviz version 16.1.0 (20260904.0139)
 -->
<!-- Title: memory Pages: 1 -->
<svg width="238pt" height="281pt"
 viewBox="0.00 0.00 238.00 281.00" xmlns="http://www.w3.org/2000/svg" xmlns:xlink="http://www.w3.org/1999/xlink">
<g id="graph0" class="graph" transform="scale(1 1) rotate(0) translate(4 276.5)">
<title>memory</title>
<polygon fill="white" stroke="none" points="-4,4 -4,-276.5 233.75,-276.5 233.75,4 -4,4"/>
<!-- mem -->
<g id="node1" class="node">
<title>mem</title>
<polygon fill="none" stroke="black" points="0,-0.5 0,-272 229.75,-272 229.75,-0.5 0,-0.5"/>
<text xml:space="preserve" text-anchor="middle" x="114.88" y="-254.7" font-family="sans-serif" font-size="14.00">高いアドレス</text>
<polyline fill="none" stroke="black" points="0,-249 229.75,-249"/>
<text xml:space="preserve" text-anchor="middle" x="114.88" y="-231.7" font-family="sans-serif" font-size="14.00">スタック（下に向かって伸びる）</text>
<text xml:space="preserve" text-anchor="middle" x="114.88" y="-216.7" font-family="sans-serif" font-size="14.00">関数呼び出しごとのフレーム</text>
<polyline fill="none" stroke="black" points="0,-211 229.75,-211"/>
<text xml:space="preserve" text-anchor="middle" x="114.88" y="-193.7" font-family="sans-serif" font-size="14.00">↓</text>
<polyline fill="none" stroke="black" points="0,-185.75 229.75,-185.75"/>
<text xml:space="preserve" text-anchor="middle" x="114.88" y="-168.45" font-family="sans-serif" font-size="14.00">（空き）</text>
<polyline fill="none" stroke="black" points="0,-162.75 229.75,-162.75"/>
<text xml:space="preserve" text-anchor="middle" x="114.88" y="-145.45" font-family="sans-serif" font-size="14.00">↑</text>
<polyline fill="none" stroke="black" points="0,-137.5 229.75,-137.5"/>
<text xml:space="preserve" text-anchor="middle" x="114.88" y="-120.2" font-family="sans-serif" font-size="14.00">ヒープ（上に向かって伸びる）</text>
<text xml:space="preserve" text-anchor="middle" x="114.88" y="-105.2" font-family="sans-serif" font-size="14.00">実行時に確保するオブジェクト</text>
<polyline fill="none" stroke="black" points="0,-99.5 229.75,-99.5"/>
<text xml:space="preserve" text-anchor="middle" x="114.88" y="-82.2" font-family="sans-serif" font-size="14.00">静的データ</text>
<text xml:space="preserve" text-anchor="middle" x="114.88" y="-67.2" font-family="sans-serif" font-size="14.00">大域変数、文字列定数</text>
<polyline fill="none" stroke="black" points="0,-61.5 229.75,-61.5"/>
<text xml:space="preserve" text-anchor="middle" x="114.88" y="-44.2" font-family="sans-serif" font-size="14.00">コード</text>
<text xml:space="preserve" text-anchor="middle" x="114.88" y="-29.2" font-family="sans-serif" font-size="14.00">機械語の命令</text>
<polyline fill="none" stroke="black" points="0,-23.5 229.75,-23.5"/>
<text xml:space="preserve" text-anchor="middle" x="114.88" y="-6.2" font-family="sans-serif" font-size="14.00">低いアドレス</text>
</g>
</g>
</svg>
